<mxfile host="app.diagrams.net" modified="2022-03-24T10:31:15.464Z" agent="5.0 (Windows NT 10.0; Win64; x64) AppleWebKit/537.36 (KHTML, like Gecko) Chrome/99.0.4844.82 Safari/537.36" etag="ooH4WwaiaEHDAAvYX_y4" version="17.1.5" type="github" pages="6">
  <diagram name="CalculationResult" id="c4acf3e9-155e-7222-9cf6-157b1a14988f">
    <mxGraphModel dx="1422" dy="705" grid="1" gridSize="10" guides="1" tooltips="1" connect="1" arrows="1" fold="1" page="1" pageScale="1" pageWidth="850" pageHeight="1100" background="none" math="0" shadow="0">
      <root>
        <mxCell id="0" />
        <mxCell id="1" parent="0" />
        <mxCell id="17acba5748e5396b-20" value="CalculationResult" style="swimlane;html=1;fontStyle=0;childLayout=stackLayout;horizontal=1;startSize=26;fillColor=none;horizontalStack=0;resizeParent=1;resizeLast=0;collapsible=1;marginBottom=0;swimlaneFillColor=#ffffff;rounded=0;shadow=0;comic=0;labelBackgroundColor=none;strokeWidth=1;fontFamily=Verdana;fontSize=10;align=center;" parent="1" vertex="1">
          <mxGeometry x="516" y="30" width="300" height="218" as="geometry">
            <mxRectangle x="80" y="42" width="120" height="26" as="alternateBounds" />
          </mxGeometry>
        </mxCell>
        <mxCell id="17acba5748e5396b-21" value="+ Metadata:&amp;nbsp;CalculationResultMetadata" style="text;html=1;strokeColor=none;fillColor=none;align=left;verticalAlign=top;spacingLeft=4;spacingRight=4;whiteSpace=wrap;overflow=hidden;rotatable=0;points=[[0,0.5],[1,0.5]];portConstraint=eastwest;" parent="17acba5748e5396b-20" vertex="1">
          <mxGeometry y="26" width="300" height="26" as="geometry" />
        </mxCell>
        <mxCell id="17acba5748e5396b-24" value="+ Overall:&amp;nbsp;CalculationResultOverall" style="text;html=1;strokeColor=none;fillColor=none;align=left;verticalAlign=top;spacingLeft=4;spacingRight=4;whiteSpace=wrap;overflow=hidden;rotatable=0;points=[[0,0.5],[1,0.5]];portConstraint=eastwest;" parent="17acba5748e5396b-20" vertex="1">
          <mxGeometry y="52" width="300" height="26" as="geometry" />
        </mxCell>
        <mxCell id="17acba5748e5396b-26" value="+ Sectors:&amp;nbsp;CalculationResultSectors" style="text;html=1;strokeColor=none;fillColor=none;align=left;verticalAlign=top;spacingLeft=4;spacingRight=4;whiteSpace=wrap;overflow=hidden;rotatable=0;points=[[0,0.5],[1,0.5]];portConstraint=eastwest;" parent="17acba5748e5396b-20" vertex="1">
          <mxGeometry y="78" width="300" height="26" as="geometry" />
        </mxCell>
        <mxCell id="17acba5748e5396b-30" value="CalculationResultMetadata" style="swimlane;html=1;fontStyle=0;childLayout=stackLayout;horizontal=1;startSize=26;fillColor=none;horizontalStack=0;resizeParent=1;resizeLast=0;collapsible=1;marginBottom=0;swimlaneFillColor=#ffffff;rounded=0;shadow=0;comic=0;labelBackgroundColor=none;strokeWidth=1;fontFamily=Verdana;fontSize=10;align=center;" parent="1" vertex="1">
          <mxGeometry x="1040" y="286" width="300" height="250" as="geometry" />
        </mxCell>
        <mxCell id="17acba5748e5396b-31" value="+ PortfolioId: string" style="text;html=1;strokeColor=none;fillColor=none;align=left;verticalAlign=top;spacingLeft=4;spacingRight=4;whiteSpace=wrap;overflow=hidden;rotatable=0;points=[[0,0.5],[1,0.5]];portConstraint=eastwest;" parent="17acba5748e5396b-30" vertex="1">
          <mxGeometry y="26" width="300" height="26" as="geometry" />
        </mxCell>
        <mxCell id="4D7eEFUb86YbAie78EuS-1" value="+ Holdings:&amp;nbsp;List&amp;lt;CalculationResultHoldings&amp;gt;" style="text;html=1;strokeColor=none;fillColor=none;align=left;verticalAlign=top;spacingLeft=4;spacingRight=4;whiteSpace=wrap;overflow=hidden;rotatable=0;points=[[0,0.5],[1,0.5]];portConstraint=eastwest;" parent="1" vertex="1">
          <mxGeometry x="516" y="138" width="300" height="26" as="geometry" />
        </mxCell>
        <mxCell id="4D7eEFUb86YbAie78EuS-2" value="+ BenchmarkId: string" style="text;html=1;strokeColor=none;fillColor=none;align=left;verticalAlign=top;spacingLeft=4;spacingRight=4;whiteSpace=wrap;overflow=hidden;rotatable=0;points=[[0,0.5],[1,0.5]];portConstraint=eastwest;" parent="1" vertex="1">
          <mxGeometry x="1040" y="332" width="300" height="26" as="geometry" />
        </mxCell>
        <mxCell id="4D7eEFUb86YbAie78EuS-3" value="+ AsOfDate: DateTime" style="text;html=1;strokeColor=none;fillColor=none;align=left;verticalAlign=top;spacingLeft=4;spacingRight=4;whiteSpace=wrap;overflow=hidden;rotatable=0;points=[[0,0.5],[1,0.5]];portConstraint=eastwest;" parent="1" vertex="1">
          <mxGeometry x="1042" y="360" width="300" height="26" as="geometry" />
        </mxCell>
        <mxCell id="4D7eEFUb86YbAie78EuS-4" value="+ ClientId: string" style="text;html=1;strokeColor=none;fillColor=none;align=left;verticalAlign=top;spacingLeft=4;spacingRight=4;whiteSpace=wrap;overflow=hidden;rotatable=0;points=[[0,0.5],[1,0.5]];portConstraint=eastwest;" parent="1" vertex="1">
          <mxGeometry x="1043" y="388" width="300" height="26" as="geometry" />
        </mxCell>
        <mxCell id="4D7eEFUb86YbAie78EuS-5" value="+ ReportDate: DateTime" style="text;html=1;strokeColor=none;fillColor=none;align=left;verticalAlign=top;spacingLeft=4;spacingRight=4;whiteSpace=wrap;overflow=hidden;rotatable=0;points=[[0,0.5],[1,0.5]];portConstraint=eastwest;" parent="1" vertex="1">
          <mxGeometry x="1046" y="418" width="300" height="26" as="geometry" />
        </mxCell>
        <mxCell id="4D7eEFUb86YbAie78EuS-6" value="+ ReportTitle: string" style="text;html=1;strokeColor=none;fillColor=none;align=left;verticalAlign=top;spacingLeft=4;spacingRight=4;whiteSpace=wrap;overflow=hidden;rotatable=0;points=[[0,0.5],[1,0.5]];portConstraint=eastwest;" parent="1" vertex="1">
          <mxGeometry x="1045" y="448" width="300" height="26" as="geometry" />
        </mxCell>
        <mxCell id="4D7eEFUb86YbAie78EuS-9" value="+ ReportCurrency: string" style="text;html=1;strokeColor=none;fillColor=none;align=left;verticalAlign=top;spacingLeft=4;spacingRight=4;whiteSpace=wrap;overflow=hidden;rotatable=0;points=[[0,0.5],[1,0.5]];portConstraint=eastwest;" parent="1" vertex="1">
          <mxGeometry x="1045" y="475" width="300" height="26" as="geometry" />
        </mxCell>
        <mxCell id="4D7eEFUb86YbAie78EuS-10" value="+ AssetUnderManagement: decimal" style="text;html=1;strokeColor=none;fillColor=none;align=left;verticalAlign=top;spacingLeft=4;spacingRight=4;whiteSpace=wrap;overflow=hidden;rotatable=0;points=[[0,0.5],[1,0.5]];portConstraint=eastwest;" parent="1" vertex="1">
          <mxGeometry x="1045" y="502" width="300" height="26" as="geometry" />
        </mxCell>
        <mxCell id="4D7eEFUb86YbAie78EuS-11" value="CalculationResultHoldings" style="swimlane;html=1;fontStyle=0;childLayout=stackLayout;horizontal=1;startSize=26;fillColor=none;horizontalStack=0;resizeParent=1;resizeLast=0;collapsible=1;marginBottom=0;swimlaneFillColor=#ffffff;rounded=0;shadow=0;comic=0;labelBackgroundColor=none;strokeWidth=1;fontFamily=Verdana;fontSize=10;align=center;" parent="1" vertex="1">
          <mxGeometry x="79" y="290" width="300" height="218" as="geometry">
            <mxRectangle x="80" y="42" width="120" height="26" as="alternateBounds" />
          </mxGeometry>
        </mxCell>
        <mxCell id="4D7eEFUb86YbAie78EuS-12" value="+ Metadata:&amp;nbsp;CalculationResultHoldingsMetadata" style="text;html=1;strokeColor=none;fillColor=none;align=left;verticalAlign=top;spacingLeft=4;spacingRight=4;whiteSpace=wrap;overflow=hidden;rotatable=0;points=[[0,0.5],[1,0.5]];portConstraint=eastwest;" parent="4D7eEFUb86YbAie78EuS-11" vertex="1">
          <mxGeometry y="26" width="300" height="26" as="geometry" />
        </mxCell>
        <mxCell id="4D7eEFUb86YbAie78EuS-13" value="+ MSCI:&amp;nbsp;CalculationResultMSCI" style="text;html=1;strokeColor=none;fillColor=none;align=left;verticalAlign=top;spacingLeft=4;spacingRight=4;whiteSpace=wrap;overflow=hidden;rotatable=0;points=[[0,0.5],[1,0.5]];portConstraint=eastwest;" parent="4D7eEFUb86YbAie78EuS-11" vertex="1">
          <mxGeometry y="52" width="300" height="26" as="geometry" />
        </mxCell>
        <mxCell id="4D7eEFUb86YbAie78EuS-14" value="+ ISS: Object" style="text;html=1;strokeColor=none;fillColor=none;align=left;verticalAlign=top;spacingLeft=4;spacingRight=4;whiteSpace=wrap;overflow=hidden;rotatable=0;points=[[0,0.5],[1,0.5]];portConstraint=eastwest;" parent="4D7eEFUb86YbAie78EuS-11" vertex="1">
          <mxGeometry y="78" width="300" height="26" as="geometry" />
        </mxCell>
        <mxCell id="4D7eEFUb86YbAie78EuS-15" value="+ TruCost: Object" style="text;html=1;strokeColor=none;fillColor=none;align=left;verticalAlign=top;spacingLeft=4;spacingRight=4;whiteSpace=wrap;overflow=hidden;rotatable=0;points=[[0,0.5],[1,0.5]];portConstraint=eastwest;" parent="1" vertex="1">
          <mxGeometry x="80" y="403" width="300" height="26" as="geometry" />
        </mxCell>
        <mxCell id="4D7eEFUb86YbAie78EuS-16" value="CalculationResultSectors" style="swimlane;html=1;fontStyle=0;childLayout=stackLayout;horizontal=1;startSize=26;fillColor=none;horizontalStack=0;resizeParent=1;resizeLast=0;collapsible=1;marginBottom=0;swimlaneFillColor=#ffffff;rounded=0;shadow=0;comic=0;labelBackgroundColor=none;strokeWidth=1;fontFamily=Verdana;fontSize=10;align=center;" parent="1" vertex="1">
          <mxGeometry x="404" y="288" width="300" height="218" as="geometry">
            <mxRectangle x="80" y="42" width="120" height="26" as="alternateBounds" />
          </mxGeometry>
        </mxCell>
        <mxCell id="4D7eEFUb86YbAie78EuS-18" value="+ MSCI:&amp;nbsp;CalculationResultSectorsMSCI" style="text;html=1;strokeColor=none;fillColor=none;align=left;verticalAlign=top;spacingLeft=4;spacingRight=4;whiteSpace=wrap;overflow=hidden;rotatable=0;points=[[0,0.5],[1,0.5]];portConstraint=eastwest;" parent="4D7eEFUb86YbAie78EuS-16" vertex="1">
          <mxGeometry y="26" width="300" height="26" as="geometry" />
        </mxCell>
        <mxCell id="4D7eEFUb86YbAie78EuS-19" value="+ ISS:&amp;nbsp;CalculationResultSectorsISS" style="text;html=1;strokeColor=none;fillColor=none;align=left;verticalAlign=top;spacingLeft=4;spacingRight=4;whiteSpace=wrap;overflow=hidden;rotatable=0;points=[[0,0.5],[1,0.5]];portConstraint=eastwest;" parent="4D7eEFUb86YbAie78EuS-16" vertex="1">
          <mxGeometry y="52" width="300" height="26" as="geometry" />
        </mxCell>
        <mxCell id="4D7eEFUb86YbAie78EuS-20" value="+ TruCost:&amp;nbsp;CalculationResultSectorsISS" style="text;html=1;strokeColor=none;fillColor=none;align=left;verticalAlign=top;spacingLeft=4;spacingRight=4;whiteSpace=wrap;overflow=hidden;rotatable=0;points=[[0,0.5],[1,0.5]];portConstraint=eastwest;" parent="1" vertex="1">
          <mxGeometry x="404" y="374" width="300" height="26" as="geometry" />
        </mxCell>
        <mxCell id="4D7eEFUb86YbAie78EuS-21" value="CalculationResultOverall" style="swimlane;html=1;fontStyle=0;childLayout=stackLayout;horizontal=1;startSize=26;fillColor=none;horizontalStack=0;resizeParent=1;resizeLast=0;collapsible=1;marginBottom=0;swimlaneFillColor=#ffffff;rounded=0;shadow=0;comic=0;labelBackgroundColor=none;strokeWidth=1;fontFamily=Verdana;fontSize=10;align=center;" parent="1" vertex="1">
          <mxGeometry x="723" y="286" width="300" height="218" as="geometry">
            <mxRectangle x="80" y="42" width="120" height="26" as="alternateBounds" />
          </mxGeometry>
        </mxCell>
        <mxCell id="4D7eEFUb86YbAie78EuS-22" value="+ MSCI:&amp;nbsp;CalculationResultOverallMSCI" style="text;html=1;strokeColor=none;fillColor=none;align=left;verticalAlign=top;spacingLeft=4;spacingRight=4;whiteSpace=wrap;overflow=hidden;rotatable=0;points=[[0,0.5],[1,0.5]];portConstraint=eastwest;" parent="4D7eEFUb86YbAie78EuS-21" vertex="1">
          <mxGeometry y="26" width="300" height="26" as="geometry" />
        </mxCell>
        <mxCell id="4D7eEFUb86YbAie78EuS-23" value="+ ISS:&amp;nbsp;CalculationResultOverallISS" style="text;html=1;strokeColor=none;fillColor=none;align=left;verticalAlign=top;spacingLeft=4;spacingRight=4;whiteSpace=wrap;overflow=hidden;rotatable=0;points=[[0,0.5],[1,0.5]];portConstraint=eastwest;" parent="4D7eEFUb86YbAie78EuS-21" vertex="1">
          <mxGeometry y="52" width="300" height="26" as="geometry" />
        </mxCell>
        <mxCell id="4D7eEFUb86YbAie78EuS-24" value="+ TruCost:&amp;nbsp;CalculationResultOverallISS" style="text;html=1;strokeColor=none;fillColor=none;align=left;verticalAlign=top;spacingLeft=4;spacingRight=4;whiteSpace=wrap;overflow=hidden;rotatable=0;points=[[0,0.5],[1,0.5]];portConstraint=eastwest;" parent="1" vertex="1">
          <mxGeometry x="724" y="368" width="300" height="26" as="geometry" />
        </mxCell>
      </root>
    </mxGraphModel>
  </diagram>
  <diagram id="b1gJzdANu-E7J6VrjbRQ" name="CalculationResultOverallMSCI">
    <mxGraphModel dx="1422" dy="705" grid="1" gridSize="10" guides="1" tooltips="1" connect="1" arrows="1" fold="1" page="1" pageScale="1" pageWidth="850" pageHeight="1100" math="0" shadow="0">
      <root>
        <mxCell id="r901hIFAxSDSb88DwtGd-0" />
        <mxCell id="r901hIFAxSDSb88DwtGd-1" parent="r901hIFAxSDSb88DwtGd-0" />
        <mxCell id="wafEPHzkeTmrFkxuDTt6-0" value="CalculationResultOverallMSCI" style="swimlane;html=1;fontStyle=0;childLayout=stackLayout;horizontal=1;startSize=26;fillColor=none;horizontalStack=0;resizeParent=1;resizeLast=0;collapsible=1;marginBottom=0;swimlaneFillColor=#ffffff;rounded=0;shadow=0;comic=0;labelBackgroundColor=none;strokeWidth=1;fontFamily=Verdana;fontSize=10;align=center;" parent="r901hIFAxSDSb88DwtGd-1" vertex="1">
          <mxGeometry x="180" y="30" width="440" height="218" as="geometry">
            <mxRectangle x="80" y="42" width="120" height="26" as="alternateBounds" />
          </mxGeometry>
        </mxCell>
        <mxCell id="wafEPHzkeTmrFkxuDTt6-1" value="+ Metadata: Object" style="text;html=1;strokeColor=none;fillColor=none;align=left;verticalAlign=top;spacingLeft=4;spacingRight=4;whiteSpace=wrap;overflow=hidden;rotatable=0;points=[[0,0.5],[1,0.5]];portConstraint=eastwest;" parent="wafEPHzkeTmrFkxuDTt6-0" vertex="1">
          <mxGeometry y="26" width="440" height="26" as="geometry" />
        </mxCell>
        <mxCell id="wafEPHzkeTmrFkxuDTt6-2" value="+ ESG:&amp;nbsp;CalculationResultOverallMSCIESG" style="text;html=1;strokeColor=none;fillColor=none;align=left;verticalAlign=top;spacingLeft=4;spacingRight=4;whiteSpace=wrap;overflow=hidden;rotatable=0;points=[[0,0.5],[1,0.5]];portConstraint=eastwest;" parent="wafEPHzkeTmrFkxuDTt6-0" vertex="1">
          <mxGeometry y="52" width="440" height="26" as="geometry" />
        </mxCell>
        <mxCell id="wafEPHzkeTmrFkxuDTt6-3" value="+ BusinessInvolement :&amp;nbsp;CalculationResultOverallMSCIBusinessInvolement" style="text;html=1;strokeColor=none;fillColor=none;align=left;verticalAlign=top;spacingLeft=4;spacingRight=4;whiteSpace=wrap;overflow=hidden;rotatable=0;points=[[0,0.5],[1,0.5]];portConstraint=eastwest;" parent="wafEPHzkeTmrFkxuDTt6-0" vertex="1">
          <mxGeometry y="78" width="440" height="26" as="geometry" />
        </mxCell>
        <mxCell id="wafEPHzkeTmrFkxuDTt6-4" value="+ Controveries:&amp;nbsp;CalculationResultOverallMSCIControveries" style="text;html=1;strokeColor=none;fillColor=none;align=left;verticalAlign=top;spacingLeft=4;spacingRight=4;whiteSpace=wrap;overflow=hidden;rotatable=0;points=[[0,0.5],[1,0.5]];portConstraint=eastwest;" parent="r901hIFAxSDSb88DwtGd-1" vertex="1">
          <mxGeometry x="181" y="143" width="439" height="26" as="geometry" />
        </mxCell>
        <mxCell id="wafEPHzkeTmrFkxuDTt6-5" value="+ Impacts :&amp;nbsp;CalculationResultOverallMSCIImpacts" style="text;html=1;strokeColor=none;fillColor=none;align=left;verticalAlign=top;spacingLeft=4;spacingRight=4;whiteSpace=wrap;overflow=hidden;rotatable=0;points=[[0,0.5],[1,0.5]];portConstraint=eastwest;" parent="r901hIFAxSDSb88DwtGd-1" vertex="1">
          <mxGeometry x="180" y="170" width="440" height="26" as="geometry" />
        </mxCell>
        <mxCell id="wafEPHzkeTmrFkxuDTt6-6" value="+ Carbon:&amp;nbsp;CalculationResultOverallMSCICarbon" style="text;html=1;strokeColor=none;fillColor=none;align=left;verticalAlign=top;spacingLeft=4;spacingRight=4;whiteSpace=wrap;overflow=hidden;rotatable=0;points=[[0,0.5],[1,0.5]];portConstraint=eastwest;" parent="r901hIFAxSDSb88DwtGd-1" vertex="1">
          <mxGeometry x="181" y="210" width="439" height="21" as="geometry" />
        </mxCell>
        <mxCell id="wafEPHzkeTmrFkxuDTt6-11" value="CalculationResultOverallMSCIESG" style="swimlane;html=1;fontStyle=0;childLayout=stackLayout;horizontal=1;startSize=26;fillColor=none;horizontalStack=0;resizeParent=1;resizeLast=0;collapsible=1;marginBottom=0;swimlaneFillColor=#ffffff;rounded=0;shadow=0;comic=0;labelBackgroundColor=none;strokeWidth=1;fontFamily=Verdana;fontSize=10;align=center;" parent="r901hIFAxSDSb88DwtGd-1" vertex="1">
          <mxGeometry x="7" y="274" width="443" height="296" as="geometry">
            <mxRectangle x="80" y="42" width="120" height="26" as="alternateBounds" />
          </mxGeometry>
        </mxCell>
        <mxCell id="wafEPHzkeTmrFkxuDTt6-12" value="+ EsgScore: Decimal?" style="text;html=1;strokeColor=none;fillColor=none;align=left;verticalAlign=top;spacingLeft=4;spacingRight=4;whiteSpace=wrap;overflow=hidden;rotatable=0;points=[[0,0.5],[1,0.5]];portConstraint=eastwest;" parent="wafEPHzkeTmrFkxuDTt6-11" vertex="1">
          <mxGeometry y="26" width="443" height="26" as="geometry" />
        </mxCell>
        <mxCell id="wafEPHzkeTmrFkxuDTt6-13" value="+ EsgQualityScore: Decimal?" style="text;html=1;strokeColor=none;fillColor=none;align=left;verticalAlign=top;spacingLeft=4;spacingRight=4;whiteSpace=wrap;overflow=hidden;rotatable=0;points=[[0,0.5],[1,0.5]];portConstraint=eastwest;" parent="wafEPHzkeTmrFkxuDTt6-11" vertex="1">
          <mxGeometry y="52" width="443" height="26" as="geometry" />
        </mxCell>
        <mxCell id="wafEPHzkeTmrFkxuDTt6-14" value="+&amp;nbsp;EsgRating : string" style="text;html=1;strokeColor=none;fillColor=none;align=left;verticalAlign=top;spacingLeft=4;spacingRight=4;whiteSpace=wrap;overflow=hidden;rotatable=0;points=[[0,0.5],[1,0.5]];portConstraint=eastwest;" parent="wafEPHzkeTmrFkxuDTt6-11" vertex="1">
          <mxGeometry y="78" width="443" height="26" as="geometry" />
        </mxCell>
        <mxCell id="wafEPHzkeTmrFkxuDTt6-15" value="+ EsgQualityRating: string" style="text;html=1;strokeColor=none;fillColor=none;align=left;verticalAlign=top;spacingLeft=4;spacingRight=4;whiteSpace=wrap;overflow=hidden;rotatable=0;points=[[0,0.5],[1,0.5]];portConstraint=eastwest;" parent="r901hIFAxSDSb88DwtGd-1" vertex="1">
          <mxGeometry x="8" y="378" width="439" height="26" as="geometry" />
        </mxCell>
        <mxCell id="wafEPHzkeTmrFkxuDTt6-16" value="+&amp;nbsp;EsgCoverage : Decimal?" style="text;html=1;strokeColor=none;fillColor=none;align=left;verticalAlign=top;spacingLeft=4;spacingRight=4;whiteSpace=wrap;overflow=hidden;rotatable=0;points=[[0,0.5],[1,0.5]];portConstraint=eastwest;" parent="r901hIFAxSDSb88DwtGd-1" vertex="1">
          <mxGeometry x="7" y="405" width="440" height="26" as="geometry" />
        </mxCell>
        <mxCell id="wafEPHzkeTmrFkxuDTt6-17" value="+ EsgCoverageOverall: Decimal?" style="text;html=1;strokeColor=none;fillColor=none;align=left;verticalAlign=top;spacingLeft=4;spacingRight=4;whiteSpace=wrap;overflow=hidden;rotatable=0;points=[[0,0.5],[1,0.5]];portConstraint=eastwest;" parent="r901hIFAxSDSb88DwtGd-1" vertex="1">
          <mxGeometry x="8" y="431" width="439" height="21" as="geometry" />
        </mxCell>
        <mxCell id="wafEPHzkeTmrFkxuDTt6-18" value="+&amp;nbsp;Esgpillars :&amp;nbsp;CalculationResultOverallMSCIESGEsgPillars" style="text;html=1;strokeColor=none;fillColor=none;align=left;verticalAlign=top;spacingLeft=4;spacingRight=4;whiteSpace=wrap;overflow=hidden;rotatable=0;points=[[0,0.5],[1,0.5]];portConstraint=eastwest;" parent="r901hIFAxSDSb88DwtGd-1" vertex="1">
          <mxGeometry x="8" y="455" width="440" height="26" as="geometry" />
        </mxCell>
        <mxCell id="wafEPHzkeTmrFkxuDTt6-19" value="+ EsgDistribution:&amp;nbsp;CalculationResultOverallMSCIESGEsgDistribution" style="text;html=1;strokeColor=none;fillColor=none;align=left;verticalAlign=top;spacingLeft=4;spacingRight=4;whiteSpace=wrap;overflow=hidden;rotatable=0;points=[[0,0.5],[1,0.5]];portConstraint=eastwest;" parent="r901hIFAxSDSb88DwtGd-1" vertex="1">
          <mxGeometry x="9" y="481" width="439" height="26" as="geometry" />
        </mxCell>
        <mxCell id="wafEPHzkeTmrFkxuDTt6-20" value="+&amp;nbsp;EsgLeaderLaggards :&amp;nbsp;CalculationResultOverallMSCIESGEsgLeadersLaggards" style="text;html=1;strokeColor=none;fillColor=none;align=left;verticalAlign=top;spacingLeft=4;spacingRight=4;whiteSpace=wrap;overflow=hidden;rotatable=0;points=[[0,0.5],[1,0.5]];portConstraint=eastwest;" parent="r901hIFAxSDSb88DwtGd-1" vertex="1">
          <mxGeometry x="8" y="508" width="482" height="26" as="geometry" />
        </mxCell>
        <mxCell id="wafEPHzkeTmrFkxuDTt6-21" value="+ EsgTrend:&amp;nbsp;CalculationResultOverallMSCIESGEsgTrend" style="text;html=1;strokeColor=none;fillColor=none;align=left;verticalAlign=top;spacingLeft=4;spacingRight=4;whiteSpace=wrap;overflow=hidden;rotatable=0;points=[[0,0.5],[1,0.5]];portConstraint=eastwest;" parent="r901hIFAxSDSb88DwtGd-1" vertex="1">
          <mxGeometry x="9" y="534" width="481" height="21" as="geometry" />
        </mxCell>
        <mxCell id="bc5GXTpQc_vvPQ0Ohowf-0" value="EsgPillar" style="swimlane;html=1;fontStyle=0;childLayout=stackLayout;horizontal=1;startSize=26;fillColor=none;horizontalStack=0;resizeParent=1;resizeLast=0;collapsible=1;marginBottom=0;swimlaneFillColor=#ffffff;rounded=0;shadow=0;comic=0;labelBackgroundColor=none;strokeWidth=1;fontFamily=Verdana;fontSize=10;align=center;" parent="r901hIFAxSDSb88DwtGd-1" vertex="1">
          <mxGeometry x="800" y="290" width="300" height="250" as="geometry" />
        </mxCell>
        <mxCell id="bc5GXTpQc_vvPQ0Ohowf-1" value="+ PillarScore: Decimal?" style="text;html=1;strokeColor=none;fillColor=none;align=left;verticalAlign=top;spacingLeft=4;spacingRight=4;whiteSpace=wrap;overflow=hidden;rotatable=0;points=[[0,0.5],[1,0.5]];portConstraint=eastwest;" parent="bc5GXTpQc_vvPQ0Ohowf-0" vertex="1">
          <mxGeometry y="26" width="300" height="26" as="geometry" />
        </mxCell>
        <mxCell id="bc5GXTpQc_vvPQ0Ohowf-2" value="+ PillarWeight: Decimal?" style="text;html=1;strokeColor=none;fillColor=none;align=left;verticalAlign=top;spacingLeft=4;spacingRight=4;whiteSpace=wrap;overflow=hidden;rotatable=0;points=[[0,0.5],[1,0.5]];portConstraint=eastwest;" parent="r901hIFAxSDSb88DwtGd-1" vertex="1">
          <mxGeometry x="800" y="336" width="300" height="26" as="geometry" />
        </mxCell>
        <mxCell id="bc5GXTpQc_vvPQ0Ohowf-3" value="+ PillarName: string" style="text;html=1;strokeColor=none;fillColor=none;align=left;verticalAlign=top;spacingLeft=4;spacingRight=4;whiteSpace=wrap;overflow=hidden;rotatable=0;points=[[0,0.5],[1,0.5]];portConstraint=eastwest;" parent="r901hIFAxSDSb88DwtGd-1" vertex="1">
          <mxGeometry x="802" y="364" width="300" height="26" as="geometry" />
        </mxCell>
        <mxCell id="bc5GXTpQc_vvPQ0Ohowf-4" value="+ CorporatePillarScore: Decimal?" style="text;html=1;strokeColor=none;fillColor=none;align=left;verticalAlign=top;spacingLeft=4;spacingRight=4;whiteSpace=wrap;overflow=hidden;rotatable=0;points=[[0,0.5],[1,0.5]];portConstraint=eastwest;" parent="r901hIFAxSDSb88DwtGd-1" vertex="1">
          <mxGeometry x="803" y="392" width="300" height="26" as="geometry" />
        </mxCell>
        <mxCell id="bc5GXTpQc_vvPQ0Ohowf-5" value="+ CorporatePillarWeight: Decimal?" style="text;html=1;strokeColor=none;fillColor=none;align=left;verticalAlign=top;spacingLeft=4;spacingRight=4;whiteSpace=wrap;overflow=hidden;rotatable=0;points=[[0,0.5],[1,0.5]];portConstraint=eastwest;" parent="r901hIFAxSDSb88DwtGd-1" vertex="1">
          <mxGeometry x="806" y="422" width="300" height="26" as="geometry" />
        </mxCell>
        <mxCell id="bc5GXTpQc_vvPQ0Ohowf-6" value="+ CorporatePillarName: string" style="text;html=1;strokeColor=none;fillColor=none;align=left;verticalAlign=top;spacingLeft=4;spacingRight=4;whiteSpace=wrap;overflow=hidden;rotatable=0;points=[[0,0.5],[1,0.5]];portConstraint=eastwest;" parent="r901hIFAxSDSb88DwtGd-1" vertex="1">
          <mxGeometry x="805" y="452" width="300" height="26" as="geometry" />
        </mxCell>
        <mxCell id="bc5GXTpQc_vvPQ0Ohowf-7" value="+ PillarQuartile: int?" style="text;html=1;strokeColor=none;fillColor=none;align=left;verticalAlign=top;spacingLeft=4;spacingRight=4;whiteSpace=wrap;overflow=hidden;rotatable=0;points=[[0,0.5],[1,0.5]];portConstraint=eastwest;" parent="r901hIFAxSDSb88DwtGd-1" vertex="1">
          <mxGeometry x="805" y="479" width="300" height="26" as="geometry" />
        </mxCell>
        <mxCell id="bc5GXTpQc_vvPQ0Ohowf-8" value="+ Themes: List&amp;lt;EsgTheme&amp;gt;" style="text;html=1;strokeColor=none;fillColor=none;align=left;verticalAlign=top;spacingLeft=4;spacingRight=4;whiteSpace=wrap;overflow=hidden;rotatable=0;points=[[0,0.5],[1,0.5]];portConstraint=eastwest;" parent="r901hIFAxSDSb88DwtGd-1" vertex="1">
          <mxGeometry x="805" y="506" width="300" height="26" as="geometry" />
        </mxCell>
        <mxCell id="bc5GXTpQc_vvPQ0Ohowf-9" value="EsgTheme" style="swimlane;html=1;fontStyle=0;childLayout=stackLayout;horizontal=1;startSize=26;fillColor=none;horizontalStack=0;resizeParent=1;resizeLast=0;collapsible=1;marginBottom=0;swimlaneFillColor=#ffffff;rounded=0;shadow=0;comic=0;labelBackgroundColor=none;strokeWidth=1;fontFamily=Verdana;fontSize=10;align=center;" parent="r901hIFAxSDSb88DwtGd-1" vertex="1">
          <mxGeometry x="1120" y="290" width="200" height="156" as="geometry" />
        </mxCell>
        <mxCell id="bc5GXTpQc_vvPQ0Ohowf-10" value="+ ThemeScore: Decimal?" style="text;html=1;strokeColor=none;fillColor=none;align=left;verticalAlign=top;spacingLeft=4;spacingRight=4;whiteSpace=wrap;overflow=hidden;rotatable=0;points=[[0,0.5],[1,0.5]];portConstraint=eastwest;" parent="bc5GXTpQc_vvPQ0Ohowf-9" vertex="1">
          <mxGeometry y="26" width="200" height="26" as="geometry" />
        </mxCell>
        <mxCell id="bc5GXTpQc_vvPQ0Ohowf-11" value="+ ThemeWeight: Decimal?" style="text;html=1;strokeColor=none;fillColor=none;align=left;verticalAlign=top;spacingLeft=4;spacingRight=4;whiteSpace=wrap;overflow=hidden;rotatable=0;points=[[0,0.5],[1,0.5]];portConstraint=eastwest;" parent="r901hIFAxSDSb88DwtGd-1" vertex="1">
          <mxGeometry x="1120" y="336" width="200" height="26" as="geometry" />
        </mxCell>
        <mxCell id="bc5GXTpQc_vvPQ0Ohowf-12" value="+ TheeName:&amp;nbsp;ThemeType?" style="text;html=1;strokeColor=none;fillColor=none;align=left;verticalAlign=top;spacingLeft=4;spacingRight=4;whiteSpace=wrap;overflow=hidden;rotatable=0;points=[[0,0.5],[1,0.5]];portConstraint=eastwest;" parent="r901hIFAxSDSb88DwtGd-1" vertex="1">
          <mxGeometry x="1122" y="364" width="198" height="26" as="geometry" />
        </mxCell>
        <mxCell id="bc5GXTpQc_vvPQ0Ohowf-13" value="+ KeyIssues: List&amp;lt;EsgKyIssue&amp;gt;" style="text;html=1;strokeColor=none;fillColor=none;align=left;verticalAlign=top;spacingLeft=4;spacingRight=4;whiteSpace=wrap;overflow=hidden;rotatable=0;points=[[0,0.5],[1,0.5]];portConstraint=eastwest;" parent="r901hIFAxSDSb88DwtGd-1" vertex="1">
          <mxGeometry x="1123" y="392" width="197" height="26" as="geometry" />
        </mxCell>
        <mxCell id="bc5GXTpQc_vvPQ0Ohowf-27" value="EsgKeyIssue" style="swimlane;html=1;fontStyle=0;childLayout=stackLayout;horizontal=1;startSize=26;fillColor=none;horizontalStack=0;resizeParent=1;resizeLast=0;collapsible=1;marginBottom=0;swimlaneFillColor=#ffffff;rounded=0;shadow=0;comic=0;labelBackgroundColor=none;strokeWidth=1;fontFamily=Verdana;fontSize=10;align=center;" parent="r901hIFAxSDSb88DwtGd-1" vertex="1">
          <mxGeometry x="1122" y="461" width="200" height="105" as="geometry" />
        </mxCell>
        <mxCell id="bc5GXTpQc_vvPQ0Ohowf-28" value="+ KeyIssueScore: Decimal?" style="text;html=1;strokeColor=none;fillColor=none;align=left;verticalAlign=top;spacingLeft=4;spacingRight=4;whiteSpace=wrap;overflow=hidden;rotatable=0;points=[[0,0.5],[1,0.5]];portConstraint=eastwest;" parent="bc5GXTpQc_vvPQ0Ohowf-27" vertex="1">
          <mxGeometry y="26" width="200" height="26" as="geometry" />
        </mxCell>
        <mxCell id="bc5GXTpQc_vvPQ0Ohowf-29" value="+ KeyIssueWeight: Decimal?" style="text;html=1;strokeColor=none;fillColor=none;align=left;verticalAlign=top;spacingLeft=4;spacingRight=4;whiteSpace=wrap;overflow=hidden;rotatable=0;points=[[0,0.5],[1,0.5]];portConstraint=eastwest;" parent="r901hIFAxSDSb88DwtGd-1" vertex="1">
          <mxGeometry x="1122" y="507" width="200" height="26" as="geometry" />
        </mxCell>
        <mxCell id="bc5GXTpQc_vvPQ0Ohowf-30" value="+ KeyIssueName: KeyIssueType?" style="text;html=1;strokeColor=none;fillColor=none;align=left;verticalAlign=top;spacingLeft=4;spacingRight=4;whiteSpace=wrap;overflow=hidden;rotatable=0;points=[[0,0.5],[1,0.5]];portConstraint=eastwest;" parent="r901hIFAxSDSb88DwtGd-1" vertex="1">
          <mxGeometry x="1124" y="535" width="198" height="26" as="geometry" />
        </mxCell>
        <mxCell id="bc5GXTpQc_vvPQ0Ohowf-34" value="CalculationResultOverallMSCIESGEsgDistribution" style="swimlane;html=1;fontStyle=0;childLayout=stackLayout;horizontal=1;startSize=26;fillColor=none;horizontalStack=0;resizeParent=1;resizeLast=0;collapsible=1;marginBottom=0;swimlaneFillColor=#ffffff;rounded=0;shadow=0;comic=0;labelBackgroundColor=none;strokeWidth=1;fontFamily=Verdana;fontSize=10;align=center;" parent="r901hIFAxSDSb88DwtGd-1" vertex="1">
          <mxGeometry x="9" y="630" width="571" height="100" as="geometry" />
        </mxCell>
        <mxCell id="bc5GXTpQc_vvPQ0Ohowf-35" value="+ EsgGrossDistribution:&amp;nbsp;List&amp;lt;CalculationResultOverallMSCIESGEsgDistributionEsgGrossDistribution&amp;gt;" style="text;html=1;strokeColor=none;fillColor=none;align=left;verticalAlign=top;spacingLeft=4;spacingRight=4;whiteSpace=wrap;overflow=hidden;rotatable=0;points=[[0,0.5],[1,0.5]];portConstraint=eastwest;" parent="bc5GXTpQc_vvPQ0Ohowf-34" vertex="1">
          <mxGeometry y="26" width="571" height="26" as="geometry" />
        </mxCell>
        <mxCell id="bc5GXTpQc_vvPQ0Ohowf-36" value="+ EsgDistribution:&amp;nbsp;List&amp;lt;CalculationResultOverallMSCIESGEsgDistributionEsgDistribution&amp;gt;" style="text;html=1;strokeColor=none;fillColor=none;align=left;verticalAlign=top;spacingLeft=4;spacingRight=4;whiteSpace=wrap;overflow=hidden;rotatable=0;points=[[0,0.5],[1,0.5]];portConstraint=eastwest;" parent="r901hIFAxSDSb88DwtGd-1" vertex="1">
          <mxGeometry x="9" y="686" width="591" height="26" as="geometry" />
        </mxCell>
        <mxCell id="bc5GXTpQc_vvPQ0Ohowf-37" value="CalculationResultOverallMSCIESGEsgDistributionEsgGrossDistribution" style="swimlane;html=1;fontStyle=0;childLayout=stackLayout;horizontal=1;startSize=26;fillColor=none;horizontalStack=0;resizeParent=1;resizeLast=0;collapsible=1;marginBottom=0;swimlaneFillColor=#ffffff;rounded=0;shadow=0;comic=0;labelBackgroundColor=none;strokeWidth=1;fontFamily=Verdana;fontSize=10;align=center;" parent="r901hIFAxSDSb88DwtGd-1" vertex="1">
          <mxGeometry x="10" y="747" width="410" height="100" as="geometry" />
        </mxCell>
        <mxCell id="bc5GXTpQc_vvPQ0Ohowf-38" value="+ DistributionValue: Decimal?" style="text;html=1;strokeColor=none;fillColor=none;align=left;verticalAlign=top;spacingLeft=4;spacingRight=4;whiteSpace=wrap;overflow=hidden;rotatable=0;points=[[0,0.5],[1,0.5]];portConstraint=eastwest;" parent="bc5GXTpQc_vvPQ0Ohowf-37" vertex="1">
          <mxGeometry y="26" width="410" height="26" as="geometry" />
        </mxCell>
        <mxCell id="bc5GXTpQc_vvPQ0Ohowf-40" value="+ DistributionName:&amp;nbsp;EsgLetterRating" style="text;html=1;strokeColor=none;fillColor=none;align=left;verticalAlign=top;spacingLeft=4;spacingRight=4;whiteSpace=wrap;overflow=hidden;rotatable=0;points=[[0,0.5],[1,0.5]];portConstraint=eastwest;" parent="r901hIFAxSDSb88DwtGd-1" vertex="1">
          <mxGeometry x="10" y="812" width="410" height="26" as="geometry" />
        </mxCell>
        <mxCell id="bc5GXTpQc_vvPQ0Ohowf-41" value="CalculationResultOverallMSCIESGEsgDistributionEsgDistribution" style="swimlane;html=1;fontStyle=0;childLayout=stackLayout;horizontal=1;startSize=26;fillColor=none;horizontalStack=0;resizeParent=1;resizeLast=0;collapsible=1;marginBottom=0;swimlaneFillColor=#ffffff;rounded=0;shadow=0;comic=0;labelBackgroundColor=none;strokeWidth=1;fontFamily=Verdana;fontSize=10;align=center;" parent="r901hIFAxSDSb88DwtGd-1" vertex="1">
          <mxGeometry x="11" y="869" width="409" height="100" as="geometry" />
        </mxCell>
        <mxCell id="bc5GXTpQc_vvPQ0Ohowf-42" value="+ DistributionValue: Decimal?" style="text;html=1;strokeColor=none;fillColor=none;align=left;verticalAlign=top;spacingLeft=4;spacingRight=4;whiteSpace=wrap;overflow=hidden;rotatable=0;points=[[0,0.5],[1,0.5]];portConstraint=eastwest;" parent="bc5GXTpQc_vvPQ0Ohowf-41" vertex="1">
          <mxGeometry y="26" width="409" height="26" as="geometry" />
        </mxCell>
        <mxCell id="bc5GXTpQc_vvPQ0Ohowf-43" value="+ DistributionName: EsgLetterRating" style="text;html=1;strokeColor=none;fillColor=none;align=left;verticalAlign=top;spacingLeft=4;spacingRight=4;whiteSpace=wrap;overflow=hidden;rotatable=0;points=[[0,0.5],[1,0.5]];portConstraint=eastwest;" parent="r901hIFAxSDSb88DwtGd-1" vertex="1">
          <mxGeometry x="11" y="919" width="409" height="26" as="geometry" />
        </mxCell>
        <mxCell id="czCsKCkK0Fto5rWjI4CE-0" value="CalculationResultOverallMSCIESGEsgPillars" style="swimlane;html=1;fontStyle=0;childLayout=stackLayout;horizontal=1;startSize=26;fillColor=none;horizontalStack=0;resizeParent=1;resizeLast=0;collapsible=1;marginBottom=0;swimlaneFillColor=#ffffff;rounded=0;shadow=0;comic=0;labelBackgroundColor=none;strokeWidth=1;fontFamily=Verdana;fontSize=10;align=center;" vertex="1" parent="r901hIFAxSDSb88DwtGd-1">
          <mxGeometry x="470" y="290" width="310" height="140" as="geometry">
            <mxRectangle x="80" y="42" width="120" height="26" as="alternateBounds" />
          </mxGeometry>
        </mxCell>
        <mxCell id="czCsKCkK0Fto5rWjI4CE-1" value="+ EnvironmentPillar : EsgPillar" style="text;html=1;strokeColor=none;fillColor=none;align=left;verticalAlign=top;spacingLeft=4;spacingRight=4;whiteSpace=wrap;overflow=hidden;rotatable=0;points=[[0,0.5],[1,0.5]];portConstraint=eastwest;" vertex="1" parent="czCsKCkK0Fto5rWjI4CE-0">
          <mxGeometry y="26" width="310" height="26" as="geometry" />
        </mxCell>
        <mxCell id="czCsKCkK0Fto5rWjI4CE-7" value="+ SocialPillar : EsgPillar" style="text;html=1;strokeColor=none;fillColor=none;align=left;verticalAlign=top;spacingLeft=4;spacingRight=4;whiteSpace=wrap;overflow=hidden;rotatable=0;points=[[0,0.5],[1,0.5]];portConstraint=eastwest;" vertex="1" parent="r901hIFAxSDSb88DwtGd-1">
          <mxGeometry x="470" y="346" width="390" height="26" as="geometry" />
        </mxCell>
        <mxCell id="czCsKCkK0Fto5rWjI4CE-8" value="+ GovernancePillar : EsgPillar" style="text;html=1;strokeColor=none;fillColor=none;align=left;verticalAlign=top;spacingLeft=4;spacingRight=4;whiteSpace=wrap;overflow=hidden;rotatable=0;points=[[0,0.5],[1,0.5]];portConstraint=eastwest;" vertex="1" parent="r901hIFAxSDSb88DwtGd-1">
          <mxGeometry x="470" y="376" width="390" height="26" as="geometry" />
        </mxCell>
        <mxCell id="czCsKCkK0Fto5rWjI4CE-9" value="CalculationResultOverallMSCIESGEsgLeadersLaggards" style="swimlane;html=1;fontStyle=0;childLayout=stackLayout;horizontal=1;startSize=26;fillColor=none;horizontalStack=0;resizeParent=1;resizeLast=0;collapsible=1;marginBottom=0;swimlaneFillColor=#ffffff;rounded=0;shadow=0;comic=0;labelBackgroundColor=none;strokeWidth=1;fontFamily=Verdana;fontSize=10;align=center;" vertex="1" parent="r901hIFAxSDSb88DwtGd-1">
          <mxGeometry x="640" y="630" width="420" height="100" as="geometry" />
        </mxCell>
        <mxCell id="czCsKCkK0Fto5rWjI4CE-10" value="+ EsgGrossLeadersLaggards :&amp;nbsp;EsgGrossLeadersLaggardsValues" style="text;html=1;strokeColor=none;fillColor=none;align=left;verticalAlign=top;spacingLeft=4;spacingRight=4;whiteSpace=wrap;overflow=hidden;rotatable=0;points=[[0,0.5],[1,0.5]];portConstraint=eastwest;" vertex="1" parent="czCsKCkK0Fto5rWjI4CE-9">
          <mxGeometry y="26" width="420" height="26" as="geometry" />
        </mxCell>
        <mxCell id="czCsKCkK0Fto5rWjI4CE-11" value="+ EsgLeadersLaggards :&amp;nbsp;EsgGrossLeadersLaggardsValues" style="text;html=1;strokeColor=none;fillColor=none;align=left;verticalAlign=top;spacingLeft=4;spacingRight=4;whiteSpace=wrap;overflow=hidden;rotatable=0;points=[[0,0.5],[1,0.5]];portConstraint=eastwest;" vertex="1" parent="r901hIFAxSDSb88DwtGd-1">
          <mxGeometry x="640" y="688" width="420" height="26" as="geometry" />
        </mxCell>
        <mxCell id="czCsKCkK0Fto5rWjI4CE-12" value="EsgGrossLeadersLaggardsValues" style="swimlane;html=1;fontStyle=0;childLayout=stackLayout;horizontal=1;startSize=26;fillColor=none;horizontalStack=0;resizeParent=1;resizeLast=0;collapsible=1;marginBottom=0;swimlaneFillColor=#ffffff;rounded=0;shadow=0;comic=0;labelBackgroundColor=none;strokeWidth=1;fontFamily=Verdana;fontSize=10;align=center;" vertex="1" parent="r901hIFAxSDSb88DwtGd-1">
          <mxGeometry x="640" y="747" width="250" height="123" as="geometry" />
        </mxCell>
        <mxCell id="czCsKCkK0Fto5rWjI4CE-13" value="+ EsgLeaders : Decimal?" style="text;html=1;strokeColor=none;fillColor=none;align=left;verticalAlign=top;spacingLeft=4;spacingRight=4;whiteSpace=wrap;overflow=hidden;rotatable=0;points=[[0,0.5],[1,0.5]];portConstraint=eastwest;" vertex="1" parent="czCsKCkK0Fto5rWjI4CE-12">
          <mxGeometry y="26" width="250" height="26" as="geometry" />
        </mxCell>
        <mxCell id="czCsKCkK0Fto5rWjI4CE-14" value="+ EsgLaggards : Decimal?" style="text;html=1;strokeColor=none;fillColor=none;align=left;verticalAlign=top;spacingLeft=4;spacingRight=4;whiteSpace=wrap;overflow=hidden;rotatable=0;points=[[0,0.5],[1,0.5]];portConstraint=eastwest;" vertex="1" parent="r901hIFAxSDSb88DwtGd-1">
          <mxGeometry x="639" y="797" width="251" height="26" as="geometry" />
        </mxCell>
        <mxCell id="czCsKCkK0Fto5rWjI4CE-15" value="+ EsgOthers : Decimal?" style="text;html=1;strokeColor=none;fillColor=none;align=left;verticalAlign=top;spacingLeft=4;spacingRight=4;whiteSpace=wrap;overflow=hidden;rotatable=0;points=[[0,0.5],[1,0.5]];portConstraint=eastwest;" vertex="1" parent="r901hIFAxSDSb88DwtGd-1">
          <mxGeometry x="640" y="822" width="250" height="26" as="geometry" />
        </mxCell>
        <mxCell id="czCsKCkK0Fto5rWjI4CE-16" value="CalculationResultOverallMSCIESGEsgTrend" style="swimlane;html=1;fontStyle=0;childLayout=stackLayout;horizontal=1;startSize=26;fillColor=none;horizontalStack=0;resizeParent=1;resizeLast=0;collapsible=1;marginBottom=0;swimlaneFillColor=#ffffff;rounded=0;shadow=0;comic=0;labelBackgroundColor=none;strokeWidth=1;fontFamily=Verdana;fontSize=10;align=center;" vertex="1" parent="r901hIFAxSDSb88DwtGd-1">
          <mxGeometry x="1090" y="630" width="390" height="160" as="geometry" />
        </mxCell>
        <mxCell id="czCsKCkK0Fto5rWjI4CE-17" value="+ TrendLevelOne :&amp;nbsp;List&amp;lt;LevelOneTrendValues&amp;gt;" style="text;html=1;strokeColor=none;fillColor=none;align=left;verticalAlign=top;spacingLeft=4;spacingRight=4;whiteSpace=wrap;overflow=hidden;rotatable=0;points=[[0,0.5],[1,0.5]];portConstraint=eastwest;" vertex="1" parent="czCsKCkK0Fto5rWjI4CE-16">
          <mxGeometry y="26" width="390" height="26" as="geometry" />
        </mxCell>
        <mxCell id="czCsKCkK0Fto5rWjI4CE-18" value="+ GrossTrendLevelOne :&amp;nbsp;List&amp;lt;LevelOneTrendValues&amp;gt;" style="text;html=1;strokeColor=none;fillColor=none;align=left;verticalAlign=top;spacingLeft=4;spacingRight=4;whiteSpace=wrap;overflow=hidden;rotatable=0;points=[[0,0.5],[1,0.5]];portConstraint=eastwest;" vertex="1" parent="r901hIFAxSDSb88DwtGd-1">
          <mxGeometry x="1090" y="685" width="390" height="26" as="geometry" />
        </mxCell>
        <mxCell id="czCsKCkK0Fto5rWjI4CE-19" value="+ TrendLevelTwo :&amp;nbsp;List&amp;lt;LevelTwoTrendValues&amp;gt;" style="text;html=1;strokeColor=none;fillColor=none;align=left;verticalAlign=top;spacingLeft=4;spacingRight=4;whiteSpace=wrap;overflow=hidden;rotatable=0;points=[[0,0.5],[1,0.5]];portConstraint=eastwest;" vertex="1" parent="r901hIFAxSDSb88DwtGd-1">
          <mxGeometry x="1090" y="717" width="390" height="26" as="geometry" />
        </mxCell>
        <mxCell id="czCsKCkK0Fto5rWjI4CE-20" value="+ GrossTrendLevelTwo:&amp;nbsp;List&amp;lt;LevelTwoTrendValues&amp;gt;" style="text;html=1;strokeColor=none;fillColor=none;align=left;verticalAlign=top;spacingLeft=4;spacingRight=4;whiteSpace=wrap;overflow=hidden;rotatable=0;points=[[0,0.5],[1,0.5]];portConstraint=eastwest;" vertex="1" parent="r901hIFAxSDSb88DwtGd-1">
          <mxGeometry x="1090" y="748" width="390" height="26" as="geometry" />
        </mxCell>
        <mxCell id="czCsKCkK0Fto5rWjI4CE-21" value="LevelOneTrendValues" style="swimlane;html=1;fontStyle=0;childLayout=stackLayout;horizontal=1;startSize=26;fillColor=none;horizontalStack=0;resizeParent=1;resizeLast=0;collapsible=1;marginBottom=0;swimlaneFillColor=#ffffff;rounded=0;shadow=0;comic=0;labelBackgroundColor=none;strokeWidth=1;fontFamily=Verdana;fontSize=10;align=center;" vertex="1" parent="r901hIFAxSDSb88DwtGd-1">
          <mxGeometry x="1027" y="812" width="250" height="123" as="geometry" />
        </mxCell>
        <mxCell id="czCsKCkK0Fto5rWjI4CE-22" value="+ TrendName : EsgLevelOneTrendFlag" style="text;html=1;strokeColor=none;fillColor=none;align=left;verticalAlign=top;spacingLeft=4;spacingRight=4;whiteSpace=wrap;overflow=hidden;rotatable=0;points=[[0,0.5],[1,0.5]];portConstraint=eastwest;" vertex="1" parent="czCsKCkK0Fto5rWjI4CE-21">
          <mxGeometry y="26" width="250" height="26" as="geometry" />
        </mxCell>
        <mxCell id="czCsKCkK0Fto5rWjI4CE-23" value="+ TrendWeight : Decimal?" style="text;html=1;strokeColor=none;fillColor=none;align=left;verticalAlign=top;spacingLeft=4;spacingRight=4;whiteSpace=wrap;overflow=hidden;rotatable=0;points=[[0,0.5],[1,0.5]];portConstraint=eastwest;" vertex="1" parent="r901hIFAxSDSb88DwtGd-1">
          <mxGeometry x="1026" y="870" width="250" height="26" as="geometry" />
        </mxCell>
        <mxCell id="czCsKCkK0Fto5rWjI4CE-24" value="LevelTwoTrendValues" style="swimlane;html=1;fontStyle=0;childLayout=stackLayout;horizontal=1;startSize=26;fillColor=none;horizontalStack=0;resizeParent=1;resizeLast=0;collapsible=1;marginBottom=0;swimlaneFillColor=#ffffff;rounded=0;shadow=0;comic=0;labelBackgroundColor=none;strokeWidth=1;fontFamily=Verdana;fontSize=10;align=center;" vertex="1" parent="r901hIFAxSDSb88DwtGd-1">
          <mxGeometry x="1286" y="812" width="250" height="123" as="geometry" />
        </mxCell>
        <mxCell id="czCsKCkK0Fto5rWjI4CE-25" value="+ TrendName : EsgLevelTwoTrendFlag" style="text;html=1;strokeColor=none;fillColor=none;align=left;verticalAlign=top;spacingLeft=4;spacingRight=4;whiteSpace=wrap;overflow=hidden;rotatable=0;points=[[0,0.5],[1,0.5]];portConstraint=eastwest;" vertex="1" parent="czCsKCkK0Fto5rWjI4CE-24">
          <mxGeometry y="26" width="250" height="22" as="geometry" />
        </mxCell>
        <mxCell id="czCsKCkK0Fto5rWjI4CE-26" value="+ TrendWeight: Decimal?" style="text;html=1;strokeColor=none;fillColor=none;align=left;verticalAlign=top;spacingLeft=4;spacingRight=4;whiteSpace=wrap;overflow=hidden;rotatable=0;points=[[0,0.5],[1,0.5]];portConstraint=eastwest;" vertex="1" parent="r901hIFAxSDSb88DwtGd-1">
          <mxGeometry x="1286" y="865" width="250" height="22" as="geometry" />
        </mxCell>
      </root>
    </mxGraphModel>
  </diagram>
  <diagram id="GBvc2MoHkLdrHCfaQdsB" name="Enums">
    <mxGraphModel dx="1038" dy="489" grid="1" gridSize="10" guides="1" tooltips="1" connect="1" arrows="1" fold="1" page="1" pageScale="1" pageWidth="850" pageHeight="1100" math="0" shadow="0">
      <root>
        <mxCell id="cyWVuHRDN49BQznvrbrS-0" />
        <mxCell id="cyWVuHRDN49BQznvrbrS-1" parent="cyWVuHRDN49BQznvrbrS-0" />
        <mxCell id="cyWVuHRDN49BQznvrbrS-2" value="public enum ThemeType&#xa;  {&#xa;    [EnumMember(Value = &quot;ClimateChange&quot;)] ClimateChange,&#xa;    [EnumMember(Value = &quot;NaturalCapital&quot;)] NaturalCapital,&#xa;    [EnumMember(Value = &quot;PollutionAndWaste&quot;)] PollutionAndWaste,&#xa;    [EnumMember(Value = &quot;EnviornmentalOpportunities&quot;)] EnviornmentalOpportunities,&#xa;    [EnumMember(Value = &quot;HumanCapital&quot;)] HumanCapital,&#xa;    [EnumMember(Value = &quot;ProductLiability&quot;)] ProductLiability,&#xa;    [EnumMember(Value = &quot;StakeholderOpposition&quot;)] StakeholderOpposition,&#xa;    [EnumMember(Value = &quot;SocialOpportunities&quot;)] SocialOpportunities,&#xa;    [EnumMember(Value = &quot;Corporate Governance&quot;)] CorporateGovernance,&#xa;    [EnumMember(Value = &quot;CorporateBehavior&quot;)] CorporateBehavior,&#xa;    [EnumMember(Value = &quot;Environment&quot;)] EnvironmentControversy,&#xa;    [EnumMember(Value = &quot;Customer&quot;)] CustomerControversy,&#xa;    [EnumMember(Value = &quot;Labor Rights&quot;)] LaborRightsControversy,&#xa;    [EnumMember(Value = &quot;Human Rights&quot;)] HumanRightsControversy,&#xa;    [EnumMember(Value = &quot;Governance&quot;)] GovernanceControversy,&#xa;    BusinessEthics,&#xa;  }" style="text;whiteSpace=wrap;html=1;" vertex="1" parent="cyWVuHRDN49BQznvrbrS-1">
          <mxGeometry x="20" y="30" width="480" height="280" as="geometry" />
        </mxCell>
        <mxCell id="gA_CV4cUClNQLDTje4xn-0" value="public enum EsgLetterRating / DistributionName&lt;br&gt;&amp;nbsp; {&lt;br&gt;&amp;nbsp; &amp;nbsp; None,&lt;br&gt;&amp;nbsp; &amp;nbsp; A,&lt;br&gt;&amp;nbsp; &amp;nbsp; AA,&lt;br&gt;&amp;nbsp; &amp;nbsp; AAA,&lt;br&gt;&amp;nbsp; &amp;nbsp; B,&lt;br&gt;&amp;nbsp; &amp;nbsp; BB,&lt;br&gt;&amp;nbsp; &amp;nbsp; BBB,&lt;br&gt;&amp;nbsp; &amp;nbsp; CCC&lt;br&gt;&amp;nbsp; }" style="text;whiteSpace=wrap;html=1;" vertex="1" parent="cyWVuHRDN49BQznvrbrS-1">
          <mxGeometry x="30" y="364" width="360" height="170" as="geometry" />
        </mxCell>
      </root>
    </mxGraphModel>
  </diagram>
  <diagram id="SFOr-ranpgVNWGlMiVJ-" name="CalculationResultSectors">
    <mxGraphModel dx="2272" dy="705" grid="1" gridSize="10" guides="1" tooltips="1" connect="1" arrows="1" fold="1" page="1" pageScale="1" pageWidth="850" pageHeight="1100" math="0" shadow="0">
      <root>
        <mxCell id="222av1p33nTXn-7Ijsec-0" />
        <mxCell id="222av1p33nTXn-7Ijsec-1" parent="222av1p33nTXn-7Ijsec-0" />
        <mxCell id="vlI17knuVNU9VvstGa9g-0" value="CalculationResultSectors" style="swimlane;html=1;fontStyle=0;childLayout=stackLayout;horizontal=1;startSize=26;fillColor=none;horizontalStack=0;resizeParent=1;resizeLast=0;collapsible=1;marginBottom=0;swimlaneFillColor=#ffffff;rounded=0;shadow=0;comic=0;labelBackgroundColor=none;strokeWidth=1;fontFamily=Verdana;fontSize=10;align=center;" vertex="1" parent="222av1p33nTXn-7Ijsec-1">
          <mxGeometry x="230" y="31" width="300" height="119" as="geometry">
            <mxRectangle x="80" y="42" width="120" height="26" as="alternateBounds" />
          </mxGeometry>
        </mxCell>
        <mxCell id="vlI17knuVNU9VvstGa9g-1" value="+ MSCI:&amp;nbsp;CalculationResultSectorsMSCI" style="text;html=1;strokeColor=none;fillColor=none;align=left;verticalAlign=top;spacingLeft=4;spacingRight=4;whiteSpace=wrap;overflow=hidden;rotatable=0;points=[[0,0.5],[1,0.5]];portConstraint=eastwest;" vertex="1" parent="vlI17knuVNU9VvstGa9g-0">
          <mxGeometry y="26" width="300" height="26" as="geometry" />
        </mxCell>
        <mxCell id="vlI17knuVNU9VvstGa9g-2" value="+ ISS:&amp;nbsp;CalculationResultSectorsISS" style="text;html=1;strokeColor=none;fillColor=none;align=left;verticalAlign=top;spacingLeft=4;spacingRight=4;whiteSpace=wrap;overflow=hidden;rotatable=0;points=[[0,0.5],[1,0.5]];portConstraint=eastwest;" vertex="1" parent="vlI17knuVNU9VvstGa9g-0">
          <mxGeometry y="52" width="300" height="26" as="geometry" />
        </mxCell>
        <mxCell id="vlI17knuVNU9VvstGa9g-3" value="+ TruCost:&amp;nbsp;CalculationResultSectorsISS" style="text;html=1;strokeColor=none;fillColor=none;align=left;verticalAlign=top;spacingLeft=4;spacingRight=4;whiteSpace=wrap;overflow=hidden;rotatable=0;points=[[0,0.5],[1,0.5]];portConstraint=eastwest;" vertex="1" parent="222av1p33nTXn-7Ijsec-1">
          <mxGeometry x="230" y="116" width="300" height="26" as="geometry" />
        </mxCell>
        <mxCell id="vlI17knuVNU9VvstGa9g-4" value="CalculationResultSectorsMSCI" style="swimlane;html=1;fontStyle=0;childLayout=stackLayout;horizontal=1;startSize=26;fillColor=none;horizontalStack=0;resizeParent=1;resizeLast=0;collapsible=1;marginBottom=0;swimlaneFillColor=#ffffff;rounded=0;shadow=0;comic=0;labelBackgroundColor=none;strokeWidth=1;fontFamily=Verdana;fontSize=10;align=center;" vertex="1" parent="222av1p33nTXn-7Ijsec-1">
          <mxGeometry x="-13" y="210" width="300" height="119" as="geometry">
            <mxRectangle x="80" y="42" width="120" height="26" as="alternateBounds" />
          </mxGeometry>
        </mxCell>
        <mxCell id="vlI17knuVNU9VvstGa9g-5" value="+ GICS :&amp;nbsp;CalculationResultSectorsMSCIGICS" style="text;html=1;strokeColor=none;fillColor=none;align=left;verticalAlign=top;spacingLeft=4;spacingRight=4;whiteSpace=wrap;overflow=hidden;rotatable=0;points=[[0,0.5],[1,0.5]];portConstraint=eastwest;" vertex="1" parent="vlI17knuVNU9VvstGa9g-4">
          <mxGeometry y="26" width="300" height="26" as="geometry" />
        </mxCell>
        <mxCell id="vlI17knuVNU9VvstGa9g-6" value="+ NACE :&amp;nbsp;List&amp;lt;object&amp;gt;" style="text;html=1;strokeColor=none;fillColor=none;align=left;verticalAlign=top;spacingLeft=4;spacingRight=4;whiteSpace=wrap;overflow=hidden;rotatable=0;points=[[0,0.5],[1,0.5]];portConstraint=eastwest;" vertex="1" parent="vlI17knuVNU9VvstGa9g-4">
          <mxGeometry y="52" width="300" height="26" as="geometry" />
        </mxCell>
        <mxCell id="vlI17knuVNU9VvstGa9g-7" value="CalculationResultSectorsMSCIGICS" style="swimlane;html=1;fontStyle=0;childLayout=stackLayout;horizontal=1;startSize=26;fillColor=none;horizontalStack=0;resizeParent=1;resizeLast=0;collapsible=1;marginBottom=0;swimlaneFillColor=#ffffff;rounded=0;shadow=0;comic=0;labelBackgroundColor=none;strokeWidth=1;fontFamily=Verdana;fontSize=10;align=center;" vertex="1" parent="222av1p33nTXn-7Ijsec-1">
          <mxGeometry x="-81" y="370" width="390" height="119" as="geometry">
            <mxRectangle x="80" y="42" width="120" height="26" as="alternateBounds" />
          </mxGeometry>
        </mxCell>
        <mxCell id="vlI17knuVNU9VvstGa9g-8" value="+ Sectors:&amp;nbsp;IDictionary&amp;lt;string, CalculationResulltMSCISector&amp;gt;" style="text;html=1;strokeColor=none;fillColor=none;align=left;verticalAlign=top;spacingLeft=4;spacingRight=4;whiteSpace=wrap;overflow=hidden;rotatable=0;points=[[0,0.5],[1,0.5]];portConstraint=eastwest;" vertex="1" parent="vlI17knuVNU9VvstGa9g-7">
          <mxGeometry y="26" width="390" height="26" as="geometry" />
        </mxCell>
        <mxCell id="vlI17knuVNU9VvstGa9g-9" value="+ Industries :&amp;nbsp;CalculationResultSectorsMSCIGICSIndustries" style="text;html=1;strokeColor=none;fillColor=none;align=left;verticalAlign=top;spacingLeft=4;spacingRight=4;whiteSpace=wrap;overflow=hidden;rotatable=0;points=[[0,0.5],[1,0.5]];portConstraint=eastwest;" vertex="1" parent="vlI17knuVNU9VvstGa9g-7">
          <mxGeometry y="52" width="390" height="26" as="geometry" />
        </mxCell>
        <mxCell id="vlI17knuVNU9VvstGa9g-10" value="+ SubIndustries :&amp;nbsp;CalculationResultSectorsMSCIGICSSubIndustries" style="text;html=1;strokeColor=none;fillColor=none;align=left;verticalAlign=top;spacingLeft=4;spacingRight=4;whiteSpace=wrap;overflow=hidden;rotatable=0;points=[[0,0.5],[1,0.5]];portConstraint=eastwest;" vertex="1" parent="vlI17knuVNU9VvstGa9g-7">
          <mxGeometry y="78" width="390" height="26" as="geometry" />
        </mxCell>
        <mxCell id="vlI17knuVNU9VvstGa9g-12" value="CalculationResulltMSCISector" style="swimlane;html=1;fontStyle=0;childLayout=stackLayout;horizontal=1;startSize=26;fillColor=none;horizontalStack=0;resizeParent=1;resizeLast=0;collapsible=1;marginBottom=0;swimlaneFillColor=#ffffff;rounded=0;shadow=0;comic=0;labelBackgroundColor=none;strokeWidth=1;fontFamily=Verdana;fontSize=10;align=center;" vertex="1" parent="222av1p33nTXn-7Ijsec-1">
          <mxGeometry x="-540" y="520" width="480" height="180" as="geometry">
            <mxRectangle x="80" y="42" width="120" height="26" as="alternateBounds" />
          </mxGeometry>
        </mxCell>
        <mxCell id="vlI17knuVNU9VvstGa9g-13" value="+ Score: Decimal?" style="text;html=1;strokeColor=none;fillColor=none;align=left;verticalAlign=top;spacingLeft=4;spacingRight=4;whiteSpace=wrap;overflow=hidden;rotatable=0;points=[[0,0.5],[1,0.5]];portConstraint=eastwest;" vertex="1" parent="vlI17knuVNU9VvstGa9g-12">
          <mxGeometry y="26" width="480" height="26" as="geometry" />
        </mxCell>
        <mxCell id="vlI17knuVNU9VvstGa9g-14" value="+ CalculationResultMSCISectorEnvironmentPillarScores:&amp;nbsp;PillarScore" style="text;html=1;strokeColor=none;fillColor=none;align=left;verticalAlign=top;spacingLeft=4;spacingRight=4;whiteSpace=wrap;overflow=hidden;rotatable=0;points=[[0,0.5],[1,0.5]];portConstraint=eastwest;" vertex="1" parent="vlI17knuVNU9VvstGa9g-12">
          <mxGeometry y="52" width="480" height="26" as="geometry" />
        </mxCell>
        <mxCell id="vlI17knuVNU9VvstGa9g-15" value="+ CalculationResultMSCISectorSocialPillarScores:&amp;nbsp;PillarScore" style="text;html=1;strokeColor=none;fillColor=none;align=left;verticalAlign=top;spacingLeft=4;spacingRight=4;whiteSpace=wrap;overflow=hidden;rotatable=0;points=[[0,0.5],[1,0.5]];portConstraint=eastwest;" vertex="1" parent="vlI17knuVNU9VvstGa9g-12">
          <mxGeometry y="78" width="480" height="26" as="geometry" />
        </mxCell>
        <mxCell id="vlI17knuVNU9VvstGa9g-16" value="+ CalculationResultMSCISectorGovernancePillarScores:&amp;nbsp;PillarScore" style="text;html=1;strokeColor=none;fillColor=none;align=left;verticalAlign=top;spacingLeft=4;spacingRight=4;whiteSpace=wrap;overflow=hidden;rotatable=0;points=[[0,0.5],[1,0.5]];portConstraint=eastwest;" vertex="1" parent="222av1p33nTXn-7Ijsec-1">
          <mxGeometry x="-540" y="630" width="480" height="26" as="geometry" />
        </mxCell>
        <mxCell id="vlI17knuVNU9VvstGa9g-17" value="+ CalculationResultMSCISectorCarbon:&amp;nbsp;CalculationResulltMSCISectorCarbon" style="text;html=1;strokeColor=none;fillColor=none;align=left;verticalAlign=top;spacingLeft=4;spacingRight=4;whiteSpace=wrap;overflow=hidden;rotatable=0;points=[[0,0.5],[1,0.5]];portConstraint=eastwest;" vertex="1" parent="222av1p33nTXn-7Ijsec-1">
          <mxGeometry x="-540" y="658" width="480" height="26" as="geometry" />
        </mxCell>
        <mxCell id="0d4GoBKVEZvlmTYZ26I7-0" value="PillarScore" style="swimlane;html=1;fontStyle=0;childLayout=stackLayout;horizontal=1;startSize=26;fillColor=none;horizontalStack=0;resizeParent=1;resizeLast=0;collapsible=1;marginBottom=0;swimlaneFillColor=#ffffff;rounded=0;shadow=0;comic=0;labelBackgroundColor=none;strokeWidth=1;fontFamily=Verdana;fontSize=10;align=center;" vertex="1" parent="222av1p33nTXn-7Ijsec-1">
          <mxGeometry x="-725" y="750" width="370" height="90" as="geometry">
            <mxRectangle x="80" y="42" width="120" height="26" as="alternateBounds" />
          </mxGeometry>
        </mxCell>
        <mxCell id="0d4GoBKVEZvlmTYZ26I7-1" value="+ Score: decimal?" style="text;html=1;strokeColor=none;fillColor=none;align=left;verticalAlign=top;spacingLeft=4;spacingRight=4;whiteSpace=wrap;overflow=hidden;rotatable=0;points=[[0,0.5],[1,0.5]];portConstraint=eastwest;" vertex="1" parent="0d4GoBKVEZvlmTYZ26I7-0">
          <mxGeometry y="26" width="370" height="26" as="geometry" />
        </mxCell>
        <mxCell id="0d4GoBKVEZvlmTYZ26I7-2" value="+ EsgThemeScores:&amp;nbsp;Dictionary&amp;lt;ThemeType, Decimal?&amp;gt;" style="text;html=1;strokeColor=none;fillColor=none;align=left;verticalAlign=top;spacingLeft=4;spacingRight=4;whiteSpace=wrap;overflow=hidden;rotatable=0;points=[[0,0.5],[1,0.5]];portConstraint=eastwest;" vertex="1" parent="0d4GoBKVEZvlmTYZ26I7-0">
          <mxGeometry y="52" width="370" height="26" as="geometry" />
        </mxCell>
        <mxCell id="0d4GoBKVEZvlmTYZ26I7-3" value="CalculationResulltMSCISectorCarbon" style="swimlane;html=1;fontStyle=0;childLayout=stackLayout;horizontal=1;startSize=26;fillColor=none;horizontalStack=0;resizeParent=1;resizeLast=0;collapsible=1;marginBottom=0;swimlaneFillColor=#ffffff;rounded=0;shadow=0;comic=0;labelBackgroundColor=none;strokeWidth=1;fontFamily=Verdana;fontSize=10;align=center;" vertex="1" parent="222av1p33nTXn-7Ijsec-1">
          <mxGeometry x="-335" y="750" width="370" height="150" as="geometry">
            <mxRectangle x="80" y="42" width="120" height="26" as="alternateBounds" />
          </mxGeometry>
        </mxCell>
        <mxCell id="0d4GoBKVEZvlmTYZ26I7-4" value="+ SectorToEmissionsScope12Percentage: decimal?" style="text;html=1;strokeColor=none;fillColor=none;align=left;verticalAlign=top;spacingLeft=4;spacingRight=4;whiteSpace=wrap;overflow=hidden;rotatable=0;points=[[0,0.5],[1,0.5]];portConstraint=eastwest;" vertex="1" parent="0d4GoBKVEZvlmTYZ26I7-3">
          <mxGeometry y="26" width="370" height="26" as="geometry" />
        </mxCell>
        <mxCell id="0d4GoBKVEZvlmTYZ26I7-6" value="+ SectorRelativeCarbonFootprint: decimal?" style="text;html=1;strokeColor=none;fillColor=none;align=left;verticalAlign=top;spacingLeft=4;spacingRight=4;whiteSpace=wrap;overflow=hidden;rotatable=0;points=[[0,0.5],[1,0.5]];portConstraint=eastwest;" vertex="1" parent="222av1p33nTXn-7Ijsec-1">
          <mxGeometry x="-335" y="812" width="370" height="26" as="geometry" />
        </mxCell>
        <mxCell id="0d4GoBKVEZvlmTYZ26I7-7" value="+ SectorToEmissionsWeightedAverageScope12: decimal?" style="text;html=1;strokeColor=none;fillColor=none;align=left;verticalAlign=top;spacingLeft=4;spacingRight=4;whiteSpace=wrap;overflow=hidden;rotatable=0;points=[[0,0.5],[1,0.5]];portConstraint=eastwest;" vertex="1" parent="222av1p33nTXn-7Ijsec-1">
          <mxGeometry x="-335" y="839" width="370" height="26" as="geometry" />
        </mxCell>
        <mxCell id="0d4GoBKVEZvlmTYZ26I7-8" value="CalculationResultSectorsMSCIGICSIndustries" style="swimlane;html=1;fontStyle=0;childLayout=stackLayout;horizontal=1;startSize=26;fillColor=none;horizontalStack=0;resizeParent=1;resizeLast=0;collapsible=1;marginBottom=0;swimlaneFillColor=#ffffff;rounded=0;shadow=0;comic=0;labelBackgroundColor=none;strokeWidth=1;fontFamily=Verdana;fontSize=10;align=center;" vertex="1" parent="222av1p33nTXn-7Ijsec-1">
          <mxGeometry x="163" y="521" width="257" height="89" as="geometry">
            <mxRectangle x="80" y="42" width="120" height="26" as="alternateBounds" />
          </mxGeometry>
        </mxCell>
        <mxCell id="0d4GoBKVEZvlmTYZ26I7-9" value="+ SectorId:&amp;nbsp;string" style="text;html=1;strokeColor=none;fillColor=none;align=left;verticalAlign=top;spacingLeft=4;spacingRight=4;whiteSpace=wrap;overflow=hidden;rotatable=0;points=[[0,0.5],[1,0.5]];portConstraint=eastwest;" vertex="1" parent="0d4GoBKVEZvlmTYZ26I7-8">
          <mxGeometry y="26" width="257" height="26" as="geometry" />
        </mxCell>
        <mxCell id="0d4GoBKVEZvlmTYZ26I7-12" value="CalculationResultSectorsMSCIGICSSubIndustries" style="swimlane;html=1;fontStyle=0;childLayout=stackLayout;horizontal=1;startSize=26;fillColor=none;horizontalStack=0;resizeParent=1;resizeLast=0;collapsible=1;marginBottom=0;swimlaneFillColor=#ffffff;rounded=0;shadow=0;comic=0;labelBackgroundColor=none;strokeWidth=1;fontFamily=Verdana;fontSize=10;align=center;" vertex="1" parent="222av1p33nTXn-7Ijsec-1">
          <mxGeometry x="490" y="521" width="310" height="89" as="geometry">
            <mxRectangle x="80" y="42" width="120" height="26" as="alternateBounds" />
          </mxGeometry>
        </mxCell>
        <mxCell id="0d4GoBKVEZvlmTYZ26I7-13" value="+ SectorId:&amp;nbsp;string" style="text;html=1;strokeColor=none;fillColor=none;align=left;verticalAlign=top;spacingLeft=4;spacingRight=4;whiteSpace=wrap;overflow=hidden;rotatable=0;points=[[0,0.5],[1,0.5]];portConstraint=eastwest;" vertex="1" parent="0d4GoBKVEZvlmTYZ26I7-12">
          <mxGeometry y="26" width="310" height="26" as="geometry" />
        </mxCell>
        <mxCell id="0d4GoBKVEZvlmTYZ26I7-14" value="+ IndustryId:&amp;nbsp;string" style="text;html=1;strokeColor=none;fillColor=none;align=left;verticalAlign=top;spacingLeft=4;spacingRight=4;whiteSpace=wrap;overflow=hidden;rotatable=0;points=[[0,0.5],[1,0.5]];portConstraint=eastwest;" vertex="1" parent="222av1p33nTXn-7Ijsec-1">
          <mxGeometry x="490" y="575" width="310" height="26" as="geometry" />
        </mxCell>
        <mxCell id="0d4GoBKVEZvlmTYZ26I7-15" value="CalculationResultSectorsISS" style="swimlane;html=1;fontStyle=0;childLayout=stackLayout;horizontal=1;startSize=26;fillColor=none;horizontalStack=0;resizeParent=1;resizeLast=0;collapsible=1;marginBottom=0;swimlaneFillColor=#ffffff;rounded=0;shadow=0;comic=0;labelBackgroundColor=none;strokeWidth=1;fontFamily=Verdana;fontSize=10;align=center;" vertex="1" parent="222av1p33nTXn-7Ijsec-1">
          <mxGeometry x="433" y="210" width="300" height="119" as="geometry">
            <mxRectangle x="80" y="42" width="120" height="26" as="alternateBounds" />
          </mxGeometry>
        </mxCell>
        <mxCell id="0d4GoBKVEZvlmTYZ26I7-16" value="+ GICS : object" style="text;html=1;strokeColor=none;fillColor=none;align=left;verticalAlign=top;spacingLeft=4;spacingRight=4;whiteSpace=wrap;overflow=hidden;rotatable=0;points=[[0,0.5],[1,0.5]];portConstraint=eastwest;" vertex="1" parent="0d4GoBKVEZvlmTYZ26I7-15">
          <mxGeometry y="26" width="300" height="26" as="geometry" />
        </mxCell>
        <mxCell id="0d4GoBKVEZvlmTYZ26I7-17" value="+ NACE : object" style="text;html=1;strokeColor=none;fillColor=none;align=left;verticalAlign=top;spacingLeft=4;spacingRight=4;whiteSpace=wrap;overflow=hidden;rotatable=0;points=[[0,0.5],[1,0.5]];portConstraint=eastwest;" vertex="1" parent="0d4GoBKVEZvlmTYZ26I7-15">
          <mxGeometry y="52" width="300" height="26" as="geometry" />
        </mxCell>
      </root>
    </mxGraphModel>
  </diagram>
  <diagram id="cYMualO8Ki8bJz70ggoH" name="CalculationResultHoldings">
    <mxGraphModel dx="2272" dy="705" grid="1" gridSize="10" guides="1" tooltips="1" connect="1" arrows="1" fold="1" page="1" pageScale="1" pageWidth="850" pageHeight="1100" math="0" shadow="0">
      <root>
        <mxCell id="Sr7LiffPHt1BK4WXV1CK-0" />
        <mxCell id="Sr7LiffPHt1BK4WXV1CK-1" parent="Sr7LiffPHt1BK4WXV1CK-0" />
        <mxCell id="_C4X1K2ZN6nDVNId9GSY-0" value="CalculationResultHoldings" style="swimlane;html=1;fontStyle=0;childLayout=stackLayout;horizontal=1;startSize=26;fillColor=none;horizontalStack=0;resizeParent=1;resizeLast=0;collapsible=1;marginBottom=0;swimlaneFillColor=#ffffff;rounded=0;shadow=0;comic=0;labelBackgroundColor=none;strokeWidth=1;fontFamily=Verdana;fontSize=10;align=center;" vertex="1" parent="Sr7LiffPHt1BK4WXV1CK-1">
          <mxGeometry x="260" y="20" width="300" height="150" as="geometry">
            <mxRectangle x="80" y="42" width="120" height="26" as="alternateBounds" />
          </mxGeometry>
        </mxCell>
        <mxCell id="_C4X1K2ZN6nDVNId9GSY-1" value="+ Metadata:&amp;nbsp;CalculationResultHoldingsMetadata" style="text;html=1;strokeColor=none;fillColor=none;align=left;verticalAlign=top;spacingLeft=4;spacingRight=4;whiteSpace=wrap;overflow=hidden;rotatable=0;points=[[0,0.5],[1,0.5]];portConstraint=eastwest;" vertex="1" parent="_C4X1K2ZN6nDVNId9GSY-0">
          <mxGeometry y="26" width="300" height="26" as="geometry" />
        </mxCell>
        <mxCell id="_C4X1K2ZN6nDVNId9GSY-2" value="+ MSCI:&amp;nbsp;CalculationResultMSCI" style="text;html=1;strokeColor=none;fillColor=none;align=left;verticalAlign=top;spacingLeft=4;spacingRight=4;whiteSpace=wrap;overflow=hidden;rotatable=0;points=[[0,0.5],[1,0.5]];portConstraint=eastwest;" vertex="1" parent="_C4X1K2ZN6nDVNId9GSY-0">
          <mxGeometry y="52" width="300" height="26" as="geometry" />
        </mxCell>
        <mxCell id="_C4X1K2ZN6nDVNId9GSY-3" value="+ ISS: Object" style="text;html=1;strokeColor=none;fillColor=none;align=left;verticalAlign=top;spacingLeft=4;spacingRight=4;whiteSpace=wrap;overflow=hidden;rotatable=0;points=[[0,0.5],[1,0.5]];portConstraint=eastwest;" vertex="1" parent="_C4X1K2ZN6nDVNId9GSY-0">
          <mxGeometry y="78" width="300" height="26" as="geometry" />
        </mxCell>
        <mxCell id="_C4X1K2ZN6nDVNId9GSY-4" value="+ TruCost: Object" style="text;html=1;strokeColor=none;fillColor=none;align=left;verticalAlign=top;spacingLeft=4;spacingRight=4;whiteSpace=wrap;overflow=hidden;rotatable=0;points=[[0,0.5],[1,0.5]];portConstraint=eastwest;" vertex="1" parent="Sr7LiffPHt1BK4WXV1CK-1">
          <mxGeometry x="261" y="133" width="300" height="26" as="geometry" />
        </mxCell>
        <mxCell id="fZNKgXVl3ji3Dk6N3ZYo-0" value="CalculationResultHoldingsMetadata" style="swimlane;html=1;fontStyle=0;childLayout=stackLayout;horizontal=1;startSize=26;fillColor=none;horizontalStack=0;resizeParent=1;resizeLast=0;collapsible=1;marginBottom=0;swimlaneFillColor=#ffffff;rounded=0;shadow=0;comic=0;labelBackgroundColor=none;strokeWidth=1;fontFamily=Verdana;fontSize=10;align=center;" vertex="1" parent="Sr7LiffPHt1BK4WXV1CK-1">
          <mxGeometry x="10" y="230" width="240" height="220" as="geometry">
            <mxRectangle x="80" y="42" width="120" height="26" as="alternateBounds" />
          </mxGeometry>
        </mxCell>
        <mxCell id="fZNKgXVl3ji3Dk6N3ZYo-1" value="+ Isin:&amp;nbsp;string" style="text;html=1;strokeColor=none;fillColor=none;align=left;verticalAlign=top;spacingLeft=4;spacingRight=4;whiteSpace=wrap;overflow=hidden;rotatable=0;points=[[0,0.5],[1,0.5]];portConstraint=eastwest;" vertex="1" parent="fZNKgXVl3ji3Dk6N3ZYo-0">
          <mxGeometry y="26" width="240" height="26" as="geometry" />
        </mxCell>
        <mxCell id="fZNKgXVl3ji3Dk6N3ZYo-2" value="+ HoldingName: string" style="text;html=1;strokeColor=none;fillColor=none;align=left;verticalAlign=top;spacingLeft=4;spacingRight=4;whiteSpace=wrap;overflow=hidden;rotatable=0;points=[[0,0.5],[1,0.5]];portConstraint=eastwest;" vertex="1" parent="fZNKgXVl3ji3Dk6N3ZYo-0">
          <mxGeometry y="52" width="240" height="26" as="geometry" />
        </mxCell>
        <mxCell id="fZNKgXVl3ji3Dk6N3ZYo-5" value="+ Parent: string" style="text;html=1;strokeColor=none;fillColor=none;align=left;verticalAlign=top;spacingLeft=4;spacingRight=4;whiteSpace=wrap;overflow=hidden;rotatable=0;points=[[0,0.5],[1,0.5]];portConstraint=eastwest;" vertex="1" parent="Sr7LiffPHt1BK4WXV1CK-1">
          <mxGeometry x="10" y="311" width="240" height="26" as="geometry" />
        </mxCell>
        <mxCell id="fZNKgXVl3ji3Dk6N3ZYo-6" value="+ GicsSectorId: int?" style="text;html=1;strokeColor=none;fillColor=none;align=left;verticalAlign=top;spacingLeft=4;spacingRight=4;whiteSpace=wrap;overflow=hidden;rotatable=0;points=[[0,0.5],[1,0.5]];portConstraint=eastwest;" vertex="1" parent="Sr7LiffPHt1BK4WXV1CK-1">
          <mxGeometry x="10" y="343" width="240" height="26" as="geometry" />
        </mxCell>
        <mxCell id="fZNKgXVl3ji3Dk6N3ZYo-7" value="+ NaceSectorId: int?" style="text;html=1;strokeColor=none;fillColor=none;align=left;verticalAlign=top;spacingLeft=4;spacingRight=4;whiteSpace=wrap;overflow=hidden;rotatable=0;points=[[0,0.5],[1,0.5]];portConstraint=eastwest;" vertex="1" parent="Sr7LiffPHt1BK4WXV1CK-1">
          <mxGeometry x="10" y="371" width="240" height="26" as="geometry" />
        </mxCell>
        <mxCell id="fZNKgXVl3ji3Dk6N3ZYo-8" value="+ UseCases: UseCases?" style="text;html=1;strokeColor=none;fillColor=none;align=left;verticalAlign=top;spacingLeft=4;spacingRight=4;whiteSpace=wrap;overflow=hidden;rotatable=0;points=[[0,0.5],[1,0.5]];portConstraint=eastwest;" vertex="1" parent="Sr7LiffPHt1BK4WXV1CK-1">
          <mxGeometry x="10" y="404" width="240" height="26" as="geometry" />
        </mxCell>
        <mxCell id="mB_4V6vbvPModoF9aQfb-0" value="CalculationResultMSCI" style="swimlane;html=1;fontStyle=0;childLayout=stackLayout;horizontal=1;startSize=26;fillColor=none;horizontalStack=0;resizeParent=1;resizeLast=0;collapsible=1;marginBottom=0;swimlaneFillColor=#ffffff;rounded=0;shadow=0;comic=0;labelBackgroundColor=none;strokeWidth=1;fontFamily=Verdana;fontSize=10;align=center;" vertex="1" parent="Sr7LiffPHt1BK4WXV1CK-1">
          <mxGeometry x="270" y="320" width="340" height="150" as="geometry">
            <mxRectangle x="80" y="42" width="120" height="26" as="alternateBounds" />
          </mxGeometry>
        </mxCell>
        <mxCell id="mB_4V6vbvPModoF9aQfb-1" value="+ Metadata: CalculationResultMSCIMetadata" style="text;html=1;strokeColor=none;fillColor=none;align=left;verticalAlign=top;spacingLeft=4;spacingRight=4;whiteSpace=wrap;overflow=hidden;rotatable=0;points=[[0,0.5],[1,0.5]];portConstraint=eastwest;" vertex="1" parent="mB_4V6vbvPModoF9aQfb-0">
          <mxGeometry y="26" width="340" height="26" as="geometry" />
        </mxCell>
        <mxCell id="mB_4V6vbvPModoF9aQfb-2" value="+ Esg:&amp;nbsp;CalculationResultMSCIEsg" style="text;html=1;strokeColor=none;fillColor=none;align=left;verticalAlign=top;spacingLeft=4;spacingRight=4;whiteSpace=wrap;overflow=hidden;rotatable=0;points=[[0,0.5],[1,0.5]];portConstraint=eastwest;" vertex="1" parent="mB_4V6vbvPModoF9aQfb-0">
          <mxGeometry y="52" width="340" height="28" as="geometry" />
        </mxCell>
        <mxCell id="mB_4V6vbvPModoF9aQfb-4" value="+ Controveries:&amp;nbsp;CalculationResultMSCIControversies" style="text;html=1;strokeColor=none;fillColor=none;align=left;verticalAlign=top;spacingLeft=4;spacingRight=4;whiteSpace=wrap;overflow=hidden;rotatable=0;points=[[0,0.5],[1,0.5]];portConstraint=eastwest;" vertex="1" parent="Sr7LiffPHt1BK4WXV1CK-1">
          <mxGeometry x="271" y="396" width="339" height="26" as="geometry" />
        </mxCell>
        <mxCell id="mB_4V6vbvPModoF9aQfb-6" value="+ Carbon:&amp;nbsp;CalculationResultMSCICarbon" style="text;html=1;strokeColor=none;fillColor=none;align=left;verticalAlign=top;spacingLeft=4;spacingRight=4;whiteSpace=wrap;overflow=hidden;rotatable=0;points=[[0,0.5],[1,0.5]];portConstraint=eastwest;" vertex="1" parent="Sr7LiffPHt1BK4WXV1CK-1">
          <mxGeometry x="271" y="421" width="339" height="21" as="geometry" />
        </mxCell>
        <mxCell id="mB_4V6vbvPModoF9aQfb-10" value="CalculationResultMSCIMetadata" style="swimlane;html=1;fontStyle=0;childLayout=stackLayout;horizontal=1;startSize=26;fillColor=none;horizontalStack=0;resizeParent=1;resizeLast=0;collapsible=1;marginBottom=0;swimlaneFillColor=#ffffff;rounded=0;shadow=0;comic=0;labelBackgroundColor=none;strokeWidth=1;fontFamily=Verdana;fontSize=10;align=center;" vertex="1" parent="Sr7LiffPHt1BK4WXV1CK-1">
          <mxGeometry x="-26" y="490" width="340" height="270" as="geometry">
            <mxRectangle x="80" y="42" width="120" height="26" as="alternateBounds" />
          </mxGeometry>
        </mxCell>
        <mxCell id="mB_4V6vbvPModoF9aQfb-11" value="+ MSCIIssuerId:&amp;nbsp;string" style="text;html=1;strokeColor=none;fillColor=none;align=left;verticalAlign=top;spacingLeft=4;spacingRight=4;whiteSpace=wrap;overflow=hidden;rotatable=0;points=[[0,0.5],[1,0.5]];portConstraint=eastwest;" vertex="1" parent="mB_4V6vbvPModoF9aQfb-10">
          <mxGeometry y="26" width="340" height="26" as="geometry" />
        </mxCell>
        <mxCell id="mB_4V6vbvPModoF9aQfb-12" value="+ MSCIUltimateParent: string" style="text;html=1;strokeColor=none;fillColor=none;align=left;verticalAlign=top;spacingLeft=4;spacingRight=4;whiteSpace=wrap;overflow=hidden;rotatable=0;points=[[0,0.5],[1,0.5]];portConstraint=eastwest;" vertex="1" parent="mB_4V6vbvPModoF9aQfb-10">
          <mxGeometry y="52" width="340" height="26" as="geometry" />
        </mxCell>
        <mxCell id="mB_4V6vbvPModoF9aQfb-13" value="+ UnderlyingIdentifiers: List&amp;lt;CalculationResultMSCIMetadataUnderlyingIdentifiers&amp;gt;" style="text;html=1;strokeColor=none;fillColor=none;align=left;verticalAlign=top;spacingLeft=4;spacingRight=4;whiteSpace=wrap;overflow=hidden;rotatable=0;points=[[0,0.5],[1,0.5]];portConstraint=eastwest;" vertex="1" parent="Sr7LiffPHt1BK4WXV1CK-1">
          <mxGeometry x="-26" y="571" width="340" height="39" as="geometry" />
        </mxCell>
        <mxCell id="mB_4V6vbvPModoF9aQfb-14" value="+ Revenue: Decimal?" style="text;html=1;strokeColor=none;fillColor=none;align=left;verticalAlign=top;spacingLeft=4;spacingRight=4;whiteSpace=wrap;overflow=hidden;rotatable=0;points=[[0,0.5],[1,0.5]];portConstraint=eastwest;" vertex="1" parent="Sr7LiffPHt1BK4WXV1CK-1">
          <mxGeometry x="-25" y="616" width="339" height="26" as="geometry" />
        </mxCell>
        <mxCell id="mB_4V6vbvPModoF9aQfb-15" value="+ MarketCapitalization: Decimal?" style="text;html=1;strokeColor=none;fillColor=none;align=left;verticalAlign=top;spacingLeft=4;spacingRight=4;whiteSpace=wrap;overflow=hidden;rotatable=0;points=[[0,0.5],[1,0.5]];portConstraint=eastwest;" vertex="1" parent="Sr7LiffPHt1BK4WXV1CK-1">
          <mxGeometry x="-25" y="644" width="339" height="26" as="geometry" />
        </mxCell>
        <mxCell id="mB_4V6vbvPModoF9aQfb-16" value="+ EnterpriseValueIncludingCash: Decimal?" style="text;html=1;strokeColor=none;fillColor=none;align=left;verticalAlign=top;spacingLeft=4;spacingRight=4;whiteSpace=wrap;overflow=hidden;rotatable=0;points=[[0,0.5],[1,0.5]];portConstraint=eastwest;" vertex="1" parent="Sr7LiffPHt1BK4WXV1CK-1">
          <mxGeometry x="-25" y="677" width="339" height="26" as="geometry" />
        </mxCell>
        <mxCell id="mB_4V6vbvPModoF9aQfb-17" value="+ MSCICompanyName: string?" style="text;html=1;strokeColor=none;fillColor=none;align=left;verticalAlign=top;spacingLeft=4;spacingRight=4;whiteSpace=wrap;overflow=hidden;rotatable=0;points=[[0,0.5],[1,0.5]];portConstraint=eastwest;" vertex="1" parent="Sr7LiffPHt1BK4WXV1CK-1">
          <mxGeometry x="-26" y="713" width="339" height="26" as="geometry" />
        </mxCell>
        <mxCell id="60JwZTebxEztVrOP66If-0" value="CalculationResultMSCIEsg" style="swimlane;html=1;fontStyle=0;childLayout=stackLayout;horizontal=1;startSize=26;fillColor=none;horizontalStack=0;resizeParent=1;resizeLast=0;collapsible=1;marginBottom=0;swimlaneFillColor=#ffffff;rounded=0;shadow=0;comic=0;labelBackgroundColor=none;strokeWidth=1;fontFamily=Verdana;fontSize=10;align=center;" vertex="1" parent="Sr7LiffPHt1BK4WXV1CK-1">
          <mxGeometry x="334" y="490" width="300" height="200" as="geometry" />
        </mxCell>
        <mxCell id="60JwZTebxEztVrOP66If-1" value="+ EsgScore: Decimal?" style="text;html=1;strokeColor=none;fillColor=none;align=left;verticalAlign=top;spacingLeft=4;spacingRight=4;whiteSpace=wrap;overflow=hidden;rotatable=0;points=[[0,0.5],[1,0.5]];portConstraint=eastwest;" vertex="1" parent="60JwZTebxEztVrOP66If-0">
          <mxGeometry y="26" width="300" height="26" as="geometry" />
        </mxCell>
        <mxCell id="60JwZTebxEztVrOP66If-2" value="+ EsgRating: EsgLetterRating" style="text;html=1;strokeColor=none;fillColor=none;align=left;verticalAlign=top;spacingLeft=4;spacingRight=4;whiteSpace=wrap;overflow=hidden;rotatable=0;points=[[0,0.5],[1,0.5]];portConstraint=eastwest;" vertex="1" parent="Sr7LiffPHt1BK4WXV1CK-1">
          <mxGeometry x="334" y="539" width="300" height="26" as="geometry" />
        </mxCell>
        <mxCell id="60JwZTebxEztVrOP66If-3" value="+ EnviornmentPillar: EsgPillar" style="text;html=1;strokeColor=none;fillColor=none;align=left;verticalAlign=top;spacingLeft=4;spacingRight=4;whiteSpace=wrap;overflow=hidden;rotatable=0;points=[[0,0.5],[1,0.5]];portConstraint=eastwest;" vertex="1" parent="Sr7LiffPHt1BK4WXV1CK-1">
          <mxGeometry x="334" y="564" width="300" height="26" as="geometry" />
        </mxCell>
        <mxCell id="60JwZTebxEztVrOP66If-4" value="+ SocialPillar: EsgPillar" style="text;html=1;strokeColor=none;fillColor=none;align=left;verticalAlign=top;spacingLeft=4;spacingRight=4;whiteSpace=wrap;overflow=hidden;rotatable=0;points=[[0,0.5],[1,0.5]];portConstraint=eastwest;" vertex="1" parent="Sr7LiffPHt1BK4WXV1CK-1">
          <mxGeometry x="334" y="592" width="300" height="26" as="geometry" />
        </mxCell>
        <mxCell id="60JwZTebxEztVrOP66If-5" value="+ GovernancePillar: EsgPillar" style="text;html=1;strokeColor=none;fillColor=none;align=left;verticalAlign=top;spacingLeft=4;spacingRight=4;whiteSpace=wrap;overflow=hidden;rotatable=0;points=[[0,0.5],[1,0.5]];portConstraint=eastwest;" vertex="1" parent="Sr7LiffPHt1BK4WXV1CK-1">
          <mxGeometry x="335" y="622" width="300" height="26" as="geometry" />
        </mxCell>
        <mxCell id="60JwZTebxEztVrOP66If-6" value="+ EsgTrend: int?" style="text;html=1;strokeColor=none;fillColor=none;align=left;verticalAlign=top;spacingLeft=4;spacingRight=4;whiteSpace=wrap;overflow=hidden;rotatable=0;points=[[0,0.5],[1,0.5]];portConstraint=eastwest;" vertex="1" parent="Sr7LiffPHt1BK4WXV1CK-1">
          <mxGeometry x="334" y="652" width="300" height="26" as="geometry" />
        </mxCell>
        <mxCell id="60JwZTebxEztVrOP66If-9" value="CalculationResultMSCIControversies" style="swimlane;html=1;fontStyle=0;childLayout=stackLayout;horizontal=1;startSize=26;fillColor=none;horizontalStack=0;resizeParent=1;resizeLast=0;collapsible=1;marginBottom=0;swimlaneFillColor=#ffffff;rounded=0;shadow=0;comic=0;labelBackgroundColor=none;strokeWidth=1;fontFamily=Verdana;fontSize=10;align=center;" vertex="1" parent="Sr7LiffPHt1BK4WXV1CK-1">
          <mxGeometry x="335" y="703" width="380" height="130" as="geometry">
            <mxRectangle x="80" y="42" width="120" height="26" as="alternateBounds" />
          </mxGeometry>
        </mxCell>
        <mxCell id="60JwZTebxEztVrOP66If-10" value="+ CorporateControversies: CalculationResultMSCIControversiesCorporateControversies" style="text;html=1;strokeColor=none;fillColor=none;align=left;verticalAlign=top;spacingLeft=4;spacingRight=4;whiteSpace=wrap;overflow=hidden;rotatable=0;points=[[0,0.5],[1,0.5]];portConstraint=eastwest;" vertex="1" parent="60JwZTebxEztVrOP66If-9">
          <mxGeometry y="26" width="380" height="46" as="geometry" />
        </mxCell>
        <mxCell id="60JwZTebxEztVrOP66If-11" value="+ GlobalNorms:&amp;nbsp;CalculationResultMSCIControversiesGlobalNorms" style="text;html=1;strokeColor=none;fillColor=none;align=left;verticalAlign=top;spacingLeft=4;spacingRight=4;whiteSpace=wrap;overflow=hidden;rotatable=0;points=[[0,0.5],[1,0.5]];portConstraint=eastwest;" vertex="1" parent="60JwZTebxEztVrOP66If-9">
          <mxGeometry y="72" width="380" height="48" as="geometry" />
        </mxCell>
        <mxCell id="60JwZTebxEztVrOP66If-15" value="CalculationResultMSCICarbon" style="swimlane;html=1;fontStyle=0;childLayout=stackLayout;horizontal=1;startSize=26;fillColor=none;horizontalStack=0;resizeParent=1;resizeLast=0;collapsible=1;marginBottom=0;swimlaneFillColor=#ffffff;rounded=0;shadow=0;comic=0;labelBackgroundColor=none;strokeWidth=1;fontFamily=Verdana;fontSize=10;align=center;" vertex="1" parent="Sr7LiffPHt1BK4WXV1CK-1">
          <mxGeometry x="667" y="490" width="420" height="200" as="geometry" />
        </mxCell>
        <mxCell id="60JwZTebxEztVrOP66If-16" value="+ CarbonEmissions: CalculationResultMSCICarbonCarbonEmissions" style="text;html=1;strokeColor=none;fillColor=none;align=left;verticalAlign=top;spacingLeft=4;spacingRight=4;whiteSpace=wrap;overflow=hidden;rotatable=0;points=[[0,0.5],[1,0.5]];portConstraint=eastwest;" vertex="1" parent="60JwZTebxEztVrOP66If-15">
          <mxGeometry y="26" width="420" height="26" as="geometry" />
        </mxCell>
        <mxCell id="60JwZTebxEztVrOP66If-17" value="+ LowCarbonTransition: CalculationResultMSCICarbonLowCarbonTransition" style="text;html=1;strokeColor=none;fillColor=none;align=left;verticalAlign=top;spacingLeft=4;spacingRight=4;whiteSpace=wrap;overflow=hidden;rotatable=0;points=[[0,0.5],[1,0.5]];portConstraint=eastwest;" vertex="1" parent="Sr7LiffPHt1BK4WXV1CK-1">
          <mxGeometry x="667" y="539" width="420" height="31" as="geometry" />
        </mxCell>
        <mxCell id="60JwZTebxEztVrOP66If-22" value="+ PowerGeneration: CalculationResultMSCICarbonPowerGeneration" style="text;html=1;strokeColor=none;fillColor=none;align=left;verticalAlign=top;spacingLeft=4;spacingRight=4;whiteSpace=wrap;overflow=hidden;rotatable=0;points=[[0,0.5],[1,0.5]];portConstraint=eastwest;" vertex="1" parent="Sr7LiffPHt1BK4WXV1CK-1">
          <mxGeometry x="667" y="574" width="420" height="31" as="geometry" />
        </mxCell>
        <mxCell id="60JwZTebxEztVrOP66If-23" value="+ ClimateValueAtRisk: CalculationResultMSCICarbonClimateValueAtRisk" style="text;html=1;strokeColor=none;fillColor=none;align=left;verticalAlign=top;spacingLeft=4;spacingRight=4;whiteSpace=wrap;overflow=hidden;rotatable=0;points=[[0,0.5],[1,0.5]];portConstraint=eastwest;" vertex="1" parent="Sr7LiffPHt1BK4WXV1CK-1">
          <mxGeometry x="667" y="607" width="420" height="31" as="geometry" />
        </mxCell>
        <mxCell id="60JwZTebxEztVrOP66If-24" value="+ Others: CalculationResultMSCICarbonOthers" style="text;html=1;strokeColor=none;fillColor=none;align=left;verticalAlign=top;spacingLeft=4;spacingRight=4;whiteSpace=wrap;overflow=hidden;rotatable=0;points=[[0,0.5],[1,0.5]];portConstraint=eastwest;" vertex="1" parent="Sr7LiffPHt1BK4WXV1CK-1">
          <mxGeometry x="668" y="641" width="420" height="31" as="geometry" />
        </mxCell>
      </root>
    </mxGraphModel>
  </diagram>
  <diagram id="luduq8-oTpXezuXuQH6F" name="CalculationResultMSCICarbonCarbonEmissions">
    <mxGraphModel dx="2272" dy="705" grid="1" gridSize="10" guides="1" tooltips="1" connect="1" arrows="1" fold="1" page="1" pageScale="1" pageWidth="850" pageHeight="1100" math="0" shadow="0">
      <root>
        <mxCell id="G4Shl7SkeFRVGQvn0bWP-0" />
        <mxCell id="G4Shl7SkeFRVGQvn0bWP-1" parent="G4Shl7SkeFRVGQvn0bWP-0" />
        <mxCell id="t6Hp57ZhdPbhjNU2wBsB-0" value="CalculationResultMSCICarbon" style="swimlane;html=1;fontStyle=0;childLayout=stackLayout;horizontal=1;startSize=26;fillColor=none;horizontalStack=0;resizeParent=1;resizeLast=0;collapsible=1;marginBottom=0;swimlaneFillColor=#ffffff;rounded=0;shadow=0;comic=0;labelBackgroundColor=none;strokeWidth=1;fontFamily=Verdana;fontSize=10;align=center;" vertex="1" parent="G4Shl7SkeFRVGQvn0bWP-1">
          <mxGeometry x="160" y="40" width="420" height="200" as="geometry" />
        </mxCell>
        <mxCell id="t6Hp57ZhdPbhjNU2wBsB-1" value="+ CarbonEmissions: CalculationResultMSCICarbonCarbonEmissions" style="text;html=1;strokeColor=none;fillColor=none;align=left;verticalAlign=top;spacingLeft=4;spacingRight=4;whiteSpace=wrap;overflow=hidden;rotatable=0;points=[[0,0.5],[1,0.5]];portConstraint=eastwest;" vertex="1" parent="t6Hp57ZhdPbhjNU2wBsB-0">
          <mxGeometry y="26" width="420" height="26" as="geometry" />
        </mxCell>
        <mxCell id="t6Hp57ZhdPbhjNU2wBsB-2" value="+ LowCarbonTransition: CalculationResultMSCICarbonLowCarbonTransition" style="text;html=1;strokeColor=none;fillColor=none;align=left;verticalAlign=top;spacingLeft=4;spacingRight=4;whiteSpace=wrap;overflow=hidden;rotatable=0;points=[[0,0.5],[1,0.5]];portConstraint=eastwest;" vertex="1" parent="G4Shl7SkeFRVGQvn0bWP-1">
          <mxGeometry x="160" y="89" width="420" height="31" as="geometry" />
        </mxCell>
        <mxCell id="t6Hp57ZhdPbhjNU2wBsB-3" value="+ PowerGeneration: CalculationResultMSCICarbonPowerGeneration" style="text;html=1;strokeColor=none;fillColor=none;align=left;verticalAlign=top;spacingLeft=4;spacingRight=4;whiteSpace=wrap;overflow=hidden;rotatable=0;points=[[0,0.5],[1,0.5]];portConstraint=eastwest;" vertex="1" parent="G4Shl7SkeFRVGQvn0bWP-1">
          <mxGeometry x="160" y="124" width="420" height="31" as="geometry" />
        </mxCell>
        <mxCell id="t6Hp57ZhdPbhjNU2wBsB-4" value="+ ClimateValueAtRisk: CalculationResultMSCICarbonClimateValueAtRisk" style="text;html=1;strokeColor=none;fillColor=none;align=left;verticalAlign=top;spacingLeft=4;spacingRight=4;whiteSpace=wrap;overflow=hidden;rotatable=0;points=[[0,0.5],[1,0.5]];portConstraint=eastwest;" vertex="1" parent="G4Shl7SkeFRVGQvn0bWP-1">
          <mxGeometry x="160" y="157" width="420" height="31" as="geometry" />
        </mxCell>
        <mxCell id="t6Hp57ZhdPbhjNU2wBsB-5" value="+ Others: CalculationResultMSCICarbonOthers" style="text;html=1;strokeColor=none;fillColor=none;align=left;verticalAlign=top;spacingLeft=4;spacingRight=4;whiteSpace=wrap;overflow=hidden;rotatable=0;points=[[0,0.5],[1,0.5]];portConstraint=eastwest;" vertex="1" parent="G4Shl7SkeFRVGQvn0bWP-1">
          <mxGeometry x="161" y="191" width="420" height="31" as="geometry" />
        </mxCell>
        <mxCell id="t6Hp57ZhdPbhjNU2wBsB-6" value="CalculationResultMSCICarbonCarbonEmissionsCorporateEmissions" style="swimlane;html=1;fontStyle=0;childLayout=stackLayout;horizontal=1;startSize=26;fillColor=none;horizontalStack=0;resizeParent=1;resizeLast=0;collapsible=1;marginBottom=0;swimlaneFillColor=#ffffff;rounded=0;shadow=0;comic=0;labelBackgroundColor=none;strokeWidth=1;fontFamily=Verdana;fontSize=10;align=center;" vertex="1" parent="G4Shl7SkeFRVGQvn0bWP-1">
          <mxGeometry x="-260" y="280" width="490" height="640" as="geometry" />
        </mxCell>
        <mxCell id="t6Hp57ZhdPbhjNU2wBsB-7" value="+ CorporateFinancedEmissionsScope1: Decimal?" style="text;html=1;strokeColor=none;fillColor=none;align=left;verticalAlign=top;spacingLeft=4;spacingRight=4;whiteSpace=wrap;overflow=hidden;rotatable=0;points=[[0,0.5],[1,0.5]];portConstraint=eastwest;" vertex="1" parent="t6Hp57ZhdPbhjNU2wBsB-6">
          <mxGeometry y="26" width="490" height="26" as="geometry" />
        </mxCell>
        <mxCell id="t6Hp57ZhdPbhjNU2wBsB-12" value="+ CorporateFinancedEmissionsScope2: Decimal?" style="text;html=1;strokeColor=none;fillColor=none;align=left;verticalAlign=top;spacingLeft=4;spacingRight=4;whiteSpace=wrap;overflow=hidden;rotatable=0;points=[[0,0.5],[1,0.5]];portConstraint=eastwest;" vertex="1" parent="G4Shl7SkeFRVGQvn0bWP-1">
          <mxGeometry x="-260" y="334" width="330" height="26" as="geometry" />
        </mxCell>
        <mxCell id="t6Hp57ZhdPbhjNU2wBsB-13" value="+ CorporateFinancedEmissionsScope3: Decimal?" style="text;html=1;strokeColor=none;fillColor=none;align=left;verticalAlign=top;spacingLeft=4;spacingRight=4;whiteSpace=wrap;overflow=hidden;rotatable=0;points=[[0,0.5],[1,0.5]];portConstraint=eastwest;" vertex="1" parent="G4Shl7SkeFRVGQvn0bWP-1">
          <mxGeometry x="-260" y="361" width="330" height="26" as="geometry" />
        </mxCell>
        <mxCell id="t6Hp57ZhdPbhjNU2wBsB-14" value="+ CorporateFinancedEmissionsScope3Upstream: Decimal?" style="text;html=1;strokeColor=none;fillColor=none;align=left;verticalAlign=top;spacingLeft=4;spacingRight=4;whiteSpace=wrap;overflow=hidden;rotatable=0;points=[[0,0.5],[1,0.5]];portConstraint=eastwest;" vertex="1" parent="G4Shl7SkeFRVGQvn0bWP-1">
          <mxGeometry x="-260" y="391" width="330" height="26" as="geometry" />
        </mxCell>
        <mxCell id="t6Hp57ZhdPbhjNU2wBsB-15" value="+ CorporateFinancedEmissionsScope3UpstreamTier1: Decimal?" style="text;html=1;strokeColor=none;fillColor=none;align=left;verticalAlign=top;spacingLeft=4;spacingRight=4;whiteSpace=wrap;overflow=hidden;rotatable=0;points=[[0,0.5],[1,0.5]];portConstraint=eastwest;" vertex="1" parent="G4Shl7SkeFRVGQvn0bWP-1">
          <mxGeometry x="-260" y="419" width="380" height="26" as="geometry" />
        </mxCell>
        <mxCell id="t6Hp57ZhdPbhjNU2wBsB-16" value="+ CorporateFinancedEmissionsScope3Downstream: Decimal?" style="text;html=1;strokeColor=none;fillColor=none;align=left;verticalAlign=top;spacingLeft=4;spacingRight=4;whiteSpace=wrap;overflow=hidden;rotatable=0;points=[[0,0.5],[1,0.5]];portConstraint=eastwest;" vertex="1" parent="G4Shl7SkeFRVGQvn0bWP-1">
          <mxGeometry x="-260" y="446" width="380" height="26" as="geometry" />
        </mxCell>
        <mxCell id="t6Hp57ZhdPbhjNU2wBsB-17" value="+ CorporateFinancedEmissionsScope12: Decimal?" style="text;html=1;strokeColor=none;fillColor=none;align=left;verticalAlign=top;spacingLeft=4;spacingRight=4;whiteSpace=wrap;overflow=hidden;rotatable=0;points=[[0,0.5],[1,0.5]];portConstraint=eastwest;" vertex="1" parent="G4Shl7SkeFRVGQvn0bWP-1">
          <mxGeometry x="-260" y="476" width="380" height="26" as="geometry" />
        </mxCell>
        <mxCell id="t6Hp57ZhdPbhjNU2wBsB-18" value="+ CorporateFinancedEmissionsScope123: Decimal?" style="text;html=1;strokeColor=none;fillColor=none;align=left;verticalAlign=top;spacingLeft=4;spacingRight=4;whiteSpace=wrap;overflow=hidden;rotatable=0;points=[[0,0.5],[1,0.5]];portConstraint=eastwest;" vertex="1" parent="G4Shl7SkeFRVGQvn0bWP-1">
          <mxGeometry x="-260" y="504" width="380" height="26" as="geometry" />
        </mxCell>
        <mxCell id="t6Hp57ZhdPbhjNU2wBsB-19" value="+ CorporateCarbonFootprintScope12: Decimal?" style="text;html=1;strokeColor=none;fillColor=none;align=left;verticalAlign=top;spacingLeft=4;spacingRight=4;whiteSpace=wrap;overflow=hidden;rotatable=0;points=[[0,0.5],[1,0.5]];portConstraint=eastwest;" vertex="1" parent="G4Shl7SkeFRVGQvn0bWP-1">
          <mxGeometry x="-260" y="531" width="380" height="26" as="geometry" />
        </mxCell>
        <mxCell id="t6Hp57ZhdPbhjNU2wBsB-20" value="+ CorporateCarbonIntensitySalesScope12: Decimal?" style="text;html=1;strokeColor=none;fillColor=none;align=left;verticalAlign=top;spacingLeft=4;spacingRight=4;whiteSpace=wrap;overflow=hidden;rotatable=0;points=[[0,0.5],[1,0.5]];portConstraint=eastwest;" vertex="1" parent="G4Shl7SkeFRVGQvn0bWP-1">
          <mxGeometry x="-260" y="563" width="380" height="26" as="geometry" />
        </mxCell>
        <mxCell id="t6Hp57ZhdPbhjNU2wBsB-21" value="+ CorporateWeightedAverageCarbonIntensitySalesScope12: Decimal?" style="text;html=1;strokeColor=none;fillColor=none;align=left;verticalAlign=top;spacingLeft=4;spacingRight=4;whiteSpace=wrap;overflow=hidden;rotatable=0;points=[[0,0.5],[1,0.5]];portConstraint=eastwest;" vertex="1" parent="G4Shl7SkeFRVGQvn0bWP-1">
          <mxGeometry x="-260" y="591" width="410" height="26" as="geometry" />
        </mxCell>
        <mxCell id="t6Hp57ZhdPbhjNU2wBsB-22" value="+ CorporateCarbonIntensitySalesScope3: Decimal?" style="text;html=1;strokeColor=none;fillColor=none;align=left;verticalAlign=top;spacingLeft=4;spacingRight=4;whiteSpace=wrap;overflow=hidden;rotatable=0;points=[[0,0.5],[1,0.5]];portConstraint=eastwest;" vertex="1" parent="G4Shl7SkeFRVGQvn0bWP-1">
          <mxGeometry x="-260" y="618" width="330" height="26" as="geometry" />
        </mxCell>
        <mxCell id="t6Hp57ZhdPbhjNU2wBsB-23" value="+ CorporateCarbonEmissionsScope3UpstreamIntensity: Decimal?" style="text;html=1;strokeColor=none;fillColor=none;align=left;verticalAlign=top;spacingLeft=4;spacingRight=4;whiteSpace=wrap;overflow=hidden;rotatable=0;points=[[0,0.5],[1,0.5]];portConstraint=eastwest;" vertex="1" parent="G4Shl7SkeFRVGQvn0bWP-1">
          <mxGeometry x="-260" y="645" width="410" height="26" as="geometry" />
        </mxCell>
        <mxCell id="t6Hp57ZhdPbhjNU2wBsB-24" value="+ CorporateEmissionsScope3DownstreamIntensity: Decimal?" style="text;html=1;strokeColor=none;fillColor=none;align=left;verticalAlign=top;spacingLeft=4;spacingRight=4;whiteSpace=wrap;overflow=hidden;rotatable=0;points=[[0,0.5],[1,0.5]];portConstraint=eastwest;" vertex="1" parent="G4Shl7SkeFRVGQvn0bWP-1">
          <mxGeometry x="-260" y="673" width="410" height="26" as="geometry" />
        </mxCell>
        <mxCell id="t6Hp57ZhdPbhjNU2wBsB-25" value="+ CorporateCorporateCarbonIntensitySalesScope123: Decimal?" style="text;html=1;strokeColor=none;fillColor=none;align=left;verticalAlign=top;spacingLeft=4;spacingRight=4;whiteSpace=wrap;overflow=hidden;rotatable=0;points=[[0,0.5],[1,0.5]];portConstraint=eastwest;" vertex="1" parent="G4Shl7SkeFRVGQvn0bWP-1">
          <mxGeometry x="-260" y="700" width="410" height="26" as="geometry" />
        </mxCell>
        <mxCell id="t6Hp57ZhdPbhjNU2wBsB-26" value="+ CorporateCarbonEmissionsScope3UpstreamTier1Intensity: Decimal?" style="text;html=1;strokeColor=none;fillColor=none;align=left;verticalAlign=top;spacingLeft=4;spacingRight=4;whiteSpace=wrap;overflow=hidden;rotatable=0;points=[[0,0.5],[1,0.5]];portConstraint=eastwest;" vertex="1" parent="G4Shl7SkeFRVGQvn0bWP-1">
          <mxGeometry x="-260" y="730" width="410" height="26" as="geometry" />
        </mxCell>
        <mxCell id="t6Hp57ZhdPbhjNU2wBsB-27" value="+ CorporateWeightedAverageCarbonIntensitySalesScope3: Decimal?" style="text;html=1;strokeColor=none;fillColor=none;align=left;verticalAlign=top;spacingLeft=4;spacingRight=4;whiteSpace=wrap;overflow=hidden;rotatable=0;points=[[0,0.5],[1,0.5]];portConstraint=eastwest;" vertex="1" parent="G4Shl7SkeFRVGQvn0bWP-1">
          <mxGeometry x="-260" y="758" width="410" height="26" as="geometry" />
        </mxCell>
        <mxCell id="t6Hp57ZhdPbhjNU2wBsB-28" value="+ CorporateWeightedAverageCarbonIntensitySalesScope3Upstream: Decimal?" style="text;html=1;strokeColor=none;fillColor=none;align=left;verticalAlign=top;spacingLeft=4;spacingRight=4;whiteSpace=wrap;overflow=hidden;rotatable=0;points=[[0,0.5],[1,0.5]];portConstraint=eastwest;" vertex="1" parent="G4Shl7SkeFRVGQvn0bWP-1">
          <mxGeometry x="-260" y="785" width="450" height="26" as="geometry" />
        </mxCell>
        <mxCell id="t6Hp57ZhdPbhjNU2wBsB-29" value="+ CorporateWeightedAverageCarbonIntensitySalesScope3UpstreamTier1: Decimal?" style="text;html=1;strokeColor=none;fillColor=none;align=left;verticalAlign=top;spacingLeft=4;spacingRight=4;whiteSpace=wrap;overflow=hidden;rotatable=0;points=[[0,0.5],[1,0.5]];portConstraint=eastwest;" vertex="1" parent="G4Shl7SkeFRVGQvn0bWP-1">
          <mxGeometry x="-260" y="815" width="490" height="26" as="geometry" />
        </mxCell>
        <mxCell id="t6Hp57ZhdPbhjNU2wBsB-31" value="+ CorporateWeightedAverageCarbonIntensitySalesScope3Downstream: Decimal?" style="text;html=1;strokeColor=none;fillColor=none;align=left;verticalAlign=top;spacingLeft=4;spacingRight=4;whiteSpace=wrap;overflow=hidden;rotatable=0;points=[[0,0.5],[1,0.5]];portConstraint=eastwest;" vertex="1" parent="G4Shl7SkeFRVGQvn0bWP-1">
          <mxGeometry x="-260" y="842" width="490" height="26" as="geometry" />
        </mxCell>
        <mxCell id="t6Hp57ZhdPbhjNU2wBsB-32" value="+ CorporateWeightedAverageCarbonIntensitySalesScope123: Decimal?" style="text;html=1;strokeColor=none;fillColor=none;align=left;verticalAlign=top;spacingLeft=4;spacingRight=4;whiteSpace=wrap;overflow=hidden;rotatable=0;points=[[0,0.5],[1,0.5]];portConstraint=eastwest;" vertex="1" parent="G4Shl7SkeFRVGQvn0bWP-1">
          <mxGeometry x="-260" y="874" width="490" height="26" as="geometry" />
        </mxCell>
        <mxCell id="t6Hp57ZhdPbhjNU2wBsB-37" value="CalculationResultMSCICarbonCarbonEmissionsSovereignEmissions" style="swimlane;html=1;fontStyle=0;childLayout=stackLayout;horizontal=1;startSize=26;fillColor=none;horizontalStack=0;resizeParent=1;resizeLast=0;collapsible=1;marginBottom=0;swimlaneFillColor=#ffffff;rounded=0;shadow=0;comic=0;labelBackgroundColor=none;strokeWidth=1;fontFamily=Verdana;fontSize=10;align=center;" vertex="1" parent="G4Shl7SkeFRVGQvn0bWP-1">
          <mxGeometry x="280" y="280" width="360" height="180" as="geometry" />
        </mxCell>
        <mxCell id="t6Hp57ZhdPbhjNU2wBsB-38" value="+ SovereignFinancedGHGEmissions: Decimal?" style="text;html=1;strokeColor=none;fillColor=none;align=left;verticalAlign=top;spacingLeft=4;spacingRight=4;whiteSpace=wrap;overflow=hidden;rotatable=0;points=[[0,0.5],[1,0.5]];portConstraint=eastwest;" vertex="1" parent="t6Hp57ZhdPbhjNU2wBsB-37">
          <mxGeometry y="26" width="360" height="26" as="geometry" />
        </mxCell>
        <mxCell id="t6Hp57ZhdPbhjNU2wBsB-39" value="+ SovereignCarbonFootprint: Decimal?" style="text;html=1;strokeColor=none;fillColor=none;align=left;verticalAlign=top;spacingLeft=4;spacingRight=4;whiteSpace=wrap;overflow=hidden;rotatable=0;points=[[0,0.5],[1,0.5]];portConstraint=eastwest;" vertex="1" parent="G4Shl7SkeFRVGQvn0bWP-1">
          <mxGeometry x="280" y="334" width="330" height="26" as="geometry" />
        </mxCell>
        <mxCell id="t6Hp57ZhdPbhjNU2wBsB-40" value="+ SovereignCarbonIntensityGdp: Decimal?" style="text;html=1;strokeColor=none;fillColor=none;align=left;verticalAlign=top;spacingLeft=4;spacingRight=4;whiteSpace=wrap;overflow=hidden;rotatable=0;points=[[0,0.5],[1,0.5]];portConstraint=eastwest;" vertex="1" parent="G4Shl7SkeFRVGQvn0bWP-1">
          <mxGeometry x="280" y="361" width="330" height="26" as="geometry" />
        </mxCell>
        <mxCell id="t6Hp57ZhdPbhjNU2wBsB-41" value="+ SovereignWeightedAverageCarbonIntensityGdp: Decimal?" style="text;html=1;strokeColor=none;fillColor=none;align=left;verticalAlign=top;spacingLeft=4;spacingRight=4;whiteSpace=wrap;overflow=hidden;rotatable=0;points=[[0,0.5],[1,0.5]];portConstraint=eastwest;" vertex="1" parent="G4Shl7SkeFRVGQvn0bWP-1">
          <mxGeometry x="280" y="391" width="360" height="26" as="geometry" />
        </mxCell>
        <mxCell id="t6Hp57ZhdPbhjNU2wBsB-42" value="+ SovereignThreeYearTrend: Decimal?" style="text;html=1;strokeColor=none;fillColor=none;align=left;verticalAlign=top;spacingLeft=4;spacingRight=4;whiteSpace=wrap;overflow=hidden;rotatable=0;points=[[0,0.5],[1,0.5]];portConstraint=eastwest;" vertex="1" parent="G4Shl7SkeFRVGQvn0bWP-1">
          <mxGeometry x="280" y="419" width="380" height="26" as="geometry" />
        </mxCell>
      </root>
    </mxGraphModel>
  </diagram>
</mxfile>
